<?xml version="1.0" encoding="UTF-8"?>
<svg version="1.1" xmlns="http://www.w3.org/2000/svg" width="2440" height="438">
<path d="M0 0 C1.08318437 -0.00512655 1.08318437 -0.00512655 2.18825126 -0.01035666 C4.60846871 -0.01694647 7.02757757 0.00505732 9.44769287 0.0269165 C11.18225071 0.02804475 12.91681046 0.02741157 14.65136719 0.02514648 C19.36189086 0.02399751 24.07200819 0.04753641 28.78243732 0.07544231 C33.70450602 0.10042548 38.62658374 0.10279553 43.54870605 0.10754395 C52.87014541 0.1199828 62.1913974 0.15281673 71.5127542 0.1929419 C82.12446867 0.2376313 92.73619203 0.25963953 103.34797716 0.27972364 C125.17789306 0.32154859 147.00755206 0.39491234 168.83734131 0.48101807 C168.83734131 23.58101807 168.83734131 46.68101807 168.83734131 70.48101807 C133.52734131 70.48101807 98.21734131 70.48101807 61.83734131 70.48101807 C61.83734131 98.20101807 61.83734131 125.92101807 61.83734131 154.48101807 C72.71445068 154.45781494 83.59156006 154.43461182 94.79827881 154.41070557 C101.67067558 154.40049194 108.54306689 154.39078185 115.41546631 154.38336182 C126.33443065 154.37147836 137.25336421 154.35748206 148.17230225 154.33013916 C156.12326442 154.31023803 164.0742017 154.29730944 172.02518809 154.29284108 C176.23725567 154.29022812 180.44925203 154.28406444 184.66129684 154.26955795 C188.62239387 154.25602573 192.58339004 154.25178653 196.54450798 154.2548027 C198.00142527 154.25425058 199.45834579 154.25024722 200.91524315 154.24260712 C202.89823366 154.23271457 204.88127777 154.23622724 206.86428833 154.24050903 C208.53181184 154.23774365 208.53181184 154.23774365 210.23302269 154.23492241 C212.83734131 154.48101807 212.83734131 154.48101807 214.83734131 156.48101807 C215.09803772 159.21368408 215.09803772 159.21368408 215.11199951 162.73492432 C215.12153152 164.0496875 215.13106354 165.36445068 215.1408844 166.71905518 C215.14062301 168.16054308 215.13968613 169.60203099 215.13812256 171.04351807 C215.1420077 172.51560589 215.14634199 173.98769259 215.15110779 175.45977783 C215.15857544 178.54664747 215.15827458 181.63340274 215.15301514 184.72027588 C215.14721596 188.68182707 215.16415919 192.64291142 215.18735981 196.60438538 C215.20206926 199.64466095 215.20297276 202.68482332 215.19985008 205.72512817 C215.20036458 207.18601406 215.20562637 208.64690607 215.215662 210.10775757 C215.22795546 212.14750625 215.21931929 214.18734898 215.20965576 216.22711182 C215.21028519 217.38912109 215.21091461 218.55113037 215.21156311 219.74835205 C215.08806992 220.65013184 214.96457672 221.55191162 214.83734131 222.48101807 C211.32559808 224.82218022 209.93481754 224.72846581 205.78199768 224.7215271 C204.51575058 224.72427643 203.24950348 224.72702576 201.94488525 224.7298584 C200.53900052 224.72278009 199.13311674 224.71551048 197.72723389 224.70806885 C196.24897774 224.70750479 194.77072103 224.70782118 193.29246521 224.70895386 C189.27619311 224.70952859 185.26004003 224.69775479 181.24379563 224.68380594 C177.04774466 224.67131867 172.85169108 224.67012967 168.65562439 224.66775513 C160.70835487 224.66153446 152.76114025 224.64511571 144.81389493 224.62505615 C134.07579032 224.5985395 123.33767074 224.58772925 112.59954166 224.57605171 C95.67876707 224.55723553 78.75810835 224.51739377 61.83734131 224.48101807 C61.83734131 251.87101807 61.83734131 279.26101807 61.83734131 307.48101807 C97.14734131 307.48101807 132.45734131 307.48101807 168.83734131 307.48101807 C168.83734131 331.24101807 168.83734131 355.00101807 168.83734131 379.48101807 C145.95887005 379.57126023 123.08054256 379.64496618 100.20193863 379.68826675 C89.57936488 379.70890501 78.95690944 379.73704975 68.33441162 379.78277588 C59.07743876 379.82260496 49.82055156 379.84844168 40.5634954 379.85737205 C35.6604704 379.86259345 30.75769051 379.87489187 25.85474396 379.90393829 C21.24187984 379.93104533 16.62936229 379.93947263 12.01642609 379.93344879 C10.32167682 379.93455114 8.62691622 379.94253312 6.93223572 379.95783997 C4.62106213 379.97769488 2.31120297 379.97297471 0 379.96203613 C-1.29419735 379.9657233 -2.5883947 379.96941048 -3.92181015 379.97320938 C-7.8431266 379.37767464 -8.76395872 378.57814656 -11.16265869 375.48101807 C-11.66405535 372.60996389 -11.66405535 372.60996389 -11.66602325 369.20595551 C-11.67645424 367.90811835 -11.68688523 366.61028119 -11.69763231 365.27311563 C-11.68898373 363.82951545 -11.67995709 362.3859175 -11.67059326 360.94232178 C-11.67520048 359.41141335 -11.68155218 357.88050934 -11.68950224 356.34961462 C-11.70624357 352.13627075 -11.69792756 347.92328797 -11.68555737 343.70994258 C-11.67652875 339.16862808 -11.69046569 334.62737686 -11.70147705 330.08607483 C-11.71929032 321.18710199 -11.71540981 312.28826387 -11.70382649 303.38928568 C-11.69480346 296.15875873 -11.69356326 288.92826961 -11.69792175 281.69773865 C-11.69853469 280.66977648 -11.69914762 279.64181431 -11.69977912 278.58270177 C-11.70105799 276.49460382 -11.70235484 274.40650588 -11.70366949 272.31840795 C-11.71508351 252.72509099 -11.70194869 233.13184882 -11.68046802 213.53854412 C-11.6625963 196.71610865 -11.66570018 179.89378357 -11.68414307 163.0713501 C-11.70553526 143.54952059 -11.7139848 124.02775667 -11.70169401 104.50591707 C-11.70041978 102.42537722 -11.69916229 100.34483736 -11.69792175 98.26429749 C-11.69730465 97.24055538 -11.69668755 96.21681327 -11.69605175 95.16204867 C-11.69259389 87.93780468 -11.69843656 80.71360219 -11.70783997 73.48936462 C-11.71904301 64.68884944 -11.71605568 55.88847701 -11.69471699 47.08797824 C-11.68418368 42.59533381 -11.6801234 38.10292763 -11.6933136 33.61028481 C-11.70519637 29.5008953 -11.69874355 25.39196586 -11.67740339 21.28261834 C-11.67291976 19.79277545 -11.67524289 18.30289402 -11.68490654 16.81307572 C-11.69700216 14.79410378 -11.68224992 12.7750236 -11.66602325 10.75608063 C-11.66537385 9.63275786 -11.66472444 8.50943509 -11.66405535 7.35207224 C-10.48451058 0.59786498 -6.11334259 -0.01741693 0 0 Z " fill="#000000" transform="translate(1520.1626586914063,29.51898193359375)"/>
<path d="M0 0 C1.08318437 -0.00384491 1.08318437 -0.00384491 2.18825126 -0.0077675 C4.60829218 -0.01270949 7.02770941 0.00379388 9.44769287 0.02018738 C11.18225083 0.02103356 12.91680986 0.02055868 14.65136719 0.01885986 C19.36181782 0.01799815 24.07203987 0.03565245 28.78243732 0.05658174 C33.70451515 0.07531914 38.62659806 0.07709666 43.54870605 0.08065796 C52.87010605 0.08998706 62.19140065 0.11461256 71.5127542 0.14470643 C82.12448027 0.17822351 92.73621135 0.19472968 103.34797716 0.20979273 C125.17783712 0.24116136 147.00755259 0.29618425 168.83734131 0.36076355 C168.83734131 23.46076355 168.83734131 46.56076355 168.83734131 70.36076355 C133.52734131 70.36076355 98.21734131 70.36076355 61.83734131 70.36076355 C61.83734131 98.08076355 61.83734131 125.80076355 61.83734131 154.36076355 C72.71445068 154.33756042 83.59156006 154.3143573 94.79827881 154.29045105 C101.67067558 154.28023743 108.54306689 154.27052734 115.41546631 154.2631073 C126.33443065 154.25122384 137.25336421 154.23722755 148.17230225 154.20988464 C156.12326442 154.18998351 164.0742017 154.17705492 172.02518809 154.17258656 C176.23725567 154.16997361 180.44925203 154.16380992 184.66129684 154.14930344 C188.62239387 154.13577121 192.58339004 154.13153202 196.54450798 154.13454819 C198.00142527 154.13399606 199.45834579 154.1299927 200.91524315 154.1223526 C202.89823366 154.11246005 204.88127777 154.11597273 206.86428833 154.12025452 C208.53181184 154.11748914 208.53181184 154.11748914 210.23302269 154.11466789 C212.83734131 154.36076355 212.83734131 154.36076355 214.83734131 156.36076355 C215.10476685 159.04873657 215.10476685 159.04873657 215.12786865 162.50700378 C215.14062836 163.79851852 215.15338806 165.09003326 215.16653442 166.42068481 C215.16959163 167.83690746 215.17181963 169.25313211 215.17327881 170.6693573 C215.17970312 172.11662937 215.1864312 173.56390013 215.19345093 175.01116943 C215.20543602 178.04675814 215.20913048 181.08223293 215.20794678 184.11784363 C215.20774347 188.00991346 215.23505089 191.90125401 215.2694912 195.7931509 C215.29171598 198.78286094 215.29578571 201.77239422 215.29472733 204.76217842 C215.29708977 206.19713417 215.3059495 207.63209432 215.32139206 209.06696892 C215.34095953 211.07292686 215.33271536 213.07909806 215.32318115 215.08512878 C215.32603119 216.22715256 215.32888123 217.36917633 215.33181763 218.54580688 C214.83734131 221.36076355 214.83734131 221.36076355 213.19003868 223.01415062 C210.17771651 224.73831287 208.16447161 224.73027651 204.69970703 224.7215271 C203.44049942 224.72565109 202.18129181 224.72977509 200.88392639 224.73402405 C199.49111724 224.7234073 198.09831025 224.71250288 196.70550537 224.70133972 C195.23695391 224.70049338 193.76840118 224.70096872 192.29985046 224.70266724 C188.31456607 224.70352836 184.32955227 224.6858837 180.34433079 224.66494536 C176.17898999 224.64619811 172.01364307 224.64442966 167.8482666 224.64086914 C159.96120403 224.63154293 152.07426614 224.60692137 144.18725848 224.57682067 C133.52908881 224.53702638 122.87088506 224.52082644 112.21265984 224.50331402 C95.4207936 224.47510067 78.62919046 224.41533504 61.83734131 224.36076355 C61.83734131 251.75076355 61.83734131 279.14076355 61.83734131 307.36076355 C97.14734131 307.36076355 132.45734131 307.36076355 168.83734131 307.36076355 C168.83734131 331.12076355 168.83734131 354.88076355 168.83734131 379.36076355 C145.95887005 379.45100571 123.08054256 379.52471166 100.20193863 379.56801224 C89.57936488 379.58865049 78.95690944 379.61679523 68.33441162 379.66252136 C59.07743876 379.70235044 49.82055156 379.72818717 40.5634954 379.73711753 C35.6604704 379.74233894 30.75769051 379.75463735 25.85474396 379.78368378 C21.24187984 379.81079081 16.62936229 379.81921811 12.01642609 379.81319427 C10.32167682 379.81429663 8.62691622 379.8222786 6.93223572 379.83758545 C4.62106213 379.85744037 2.31120297 379.85272019 0 379.84178162 C-1.29419735 379.84546879 -2.5883947 379.84915596 -3.92181015 379.85295486 C-7.84353972 379.25735738 -8.76432919 378.45892263 -11.16265869 375.36076355 C-11.66405535 372.48214668 -11.66405535 372.48214668 -11.66602325 369.06729031 C-11.67645424 367.76535305 -11.68688523 366.4634158 -11.69763231 365.12202591 C-11.68898374 363.67380647 -11.6799571 362.22558925 -11.67059326 360.77737427 C-11.67520045 359.24162837 -11.68155214 357.70588687 -11.68950224 356.17015463 C-11.7062437 351.94347895 -11.69792752 347.71716322 -11.68555737 343.49048603 C-11.67652888 338.93487567 -11.69046558 334.3793284 -11.70147705 329.82373047 C-11.71929004 320.89701928 -11.71541006 311.97044241 -11.70382649 303.0437259 C-11.69480392 295.79126056 -11.69356306 288.53883294 -11.69792175 281.2863636 C-11.69853469 280.25533735 -11.69914762 279.2243111 -11.69977912 278.16204162 C-11.70105798 276.06774094 -11.70235484 273.97344027 -11.70366949 271.87913961 C-11.71508328 252.22814898 -11.70194875 232.57723292 -11.68046802 212.92625452 C-11.66259367 196.05176641 -11.66570239 179.17738835 -11.68414307 162.30290222 C-11.7055311 142.72211871 -11.71398737 123.14140058 -11.70169401 103.56060702 C-11.70041977 101.47418727 -11.69916229 99.3877675 -11.69792175 97.30134773 C-11.69730465 96.2747008 -11.69668755 95.24805387 -11.69605175 94.19029642 C-11.69259283 86.94304035 -11.69843877 79.69582564 -11.70783997 72.44857597 C-11.71903827 63.62168192 -11.71606561 54.79493022 -11.69471699 45.96805256 C-11.68417767 41.46135538 -11.68013356 36.95489585 -11.6933136 32.44820023 C-11.70518389 28.327144 -11.69876448 24.20654696 -11.67740339 20.08553273 C-11.67291444 18.59032408 -11.67525461 17.09507708 -11.68490654 15.59989285 C-11.69697443 13.57608664 -11.68227009 11.55217263 -11.66602325 9.52839565 C-11.66537385 8.4016554 -11.66472444 7.27491515 -11.66405535 6.11403126 C-11.16265869 3.36076355 -11.16265869 3.36076355 -9.33375144 1.49835801 C-6.17258233 -0.15800995 -3.5571323 -0.00760071 0 0 Z " fill="#000000" transform="translate(1976.1626586914063,29.639236450195313)"/>
<path d="M0 0 C8.99410186 6.33854982 13.2082703 14.96355305 15.22265625 25.56640625 C16.30845059 36.9672468 12.62598489 46.19397111 5.55353546 54.99222779 C0.84197451 60.56511352 -4.45139853 65.62541682 -9.62890625 70.75854492 C-11.01987628 72.14866712 -12.41018286 73.53945345 -13.79988098 74.93084717 C-17.54673512 78.67855658 -21.3027186 82.41699048 -25.06049728 86.1537416 C-28.99633985 90.07073884 -32.92360076 93.99632167 -36.85180664 97.92097473 C-44.27934178 105.33921239 -51.71448603 112.74977409 -59.15244198 120.1575616 C-67.62516915 128.59667304 -76.08930625 137.04437785 -84.55275726 145.49279058 C-101.9514579 162.86019428 -119.36083826 180.21685907 -136.77734375 197.56640625 C-135.15778474 201.64274888 -132.24422369 204.36425385 -129.17961121 207.38446045 C-128.31254302 208.25091686 -128.31254302 208.25091686 -127.42795831 209.13487744 C-125.48816713 211.07093563 -123.54132654 212.99974706 -121.59448242 214.92871094 C-120.20285258 216.31486571 -118.81168435 217.70148406 -117.42094421 219.08853149 C-114.42371348 222.07604552 -111.42345349 225.06047229 -108.4208889 228.04262543 C-103.67097123 232.76074166 -98.92921049 237.48699796 -94.188797 242.21466064 C-82.41028458 253.95907621 -70.62255372 265.69422785 -58.82989502 277.42443848 C-49.67065136 286.53520081 -40.51462844 295.64914212 -31.36912519 304.7737 C-26.66017601 309.47114073 -21.94437269 314.1615551 -17.22328413 318.84679365 C-14.28251489 321.76832761 -11.34805937 324.69614055 -8.41530037 327.62571335 C-7.0574378 328.97956745 -5.69699945 330.330844 -4.33376312 331.67928696 C-2.46745964 333.52607009 -0.61075669 335.38202091 1.24397278 337.24041748 C1.78055899 337.76690093 2.3171452 338.29338438 2.8699916 338.83582187 C10.68894426 346.7283989 14.98906437 355.65231348 15.3203125 366.875 C14.77910816 378.08188994 11.57422313 386.90668514 3.22265625 394.56640625 C-5.60079446 401.68001094 -14.4486791 404.6912382 -25.77734375 403.56640625 C-41.5919553 401.0809049 -52.82104909 386.96012963 -63.53637695 376.21142578 C-65.20251003 374.55100319 -66.86927032 372.89120977 -68.53660583 371.23199463 C-73.03918673 366.74728117 -77.53223897 362.25313703 -82.02303338 357.7566247 C-86.25671338 353.51945172 -90.49612201 349.28801926 -94.73498537 345.05603336 C-103.63951465 336.16519327 -112.53448847 327.26484186 -121.42642423 318.36140929 C-129.54712531 310.23076954 -137.679221 302.11163815 -145.81683693 293.99793078 C-154.19374636 285.64544604 -162.56320025 277.28555868 -170.92458409 268.91753089 C-175.61057859 264.22805295 -180.29952884 259.54160706 -184.9958744 254.86249161 C-189.41014377 250.463714 -193.81455688 246.05529729 -198.21167946 241.63938141 C-199.82307617 240.02430568 -201.43786118 238.41260207 -203.05633163 236.80461502 C-224.91051518 215.08117439 -224.91051518 215.08117439 -225.21484375 198.37890625 C-224.85184996 177.93025636 -207.96389481 165.60073062 -194.55249023 152.18041992 C-192.91865384 150.54194741 -191.2850125 148.90328037 -189.65155029 147.26443481 C-185.23891618 142.8387603 -180.82302107 138.41635433 -176.40609241 133.99496627 C-173.64380158 131.22973415 -170.88209438 128.46392043 -168.1205616 125.69793129 C-160.45889613 118.02417821 -152.79638388 110.35127414 -145.13037014 102.68186474 C-144.3972264 101.94839165 -144.3972264 101.94839165 -143.64927167 101.20010092 C-142.91451206 100.46501389 -142.91451206 100.46501389 -142.16490883 99.71507663 C-141.17251904 98.72224339 -140.18013082 97.7294086 -139.18774414 96.73657227 C-138.69549947 96.24410617 -138.2032548 95.75164007 -137.69609363 95.24425075 C-129.70719549 87.25139825 -121.72508442 79.25180407 -113.7458434 71.24931201 C-105.53371214 63.01344591 -97.31581795 54.7833678 -89.0925222 46.55864888 C-84.4833271 41.94840651 -79.87658707 37.33577344 -75.27581596 32.71712303 C-70.95265702 28.37748729 -66.62239668 24.04506583 -62.28660583 19.71805191 C-60.69895986 18.13117622 -59.1138667 16.54174165 -57.53155708 14.94954491 C-55.36752518 12.77278776 -53.19438734 10.60553615 -51.01878357 8.44035339 C-50.08826373 7.49774895 -50.08826373 7.49774895 -49.13894552 6.536102 C-35.21418401 -7.23368365 -16.86989844 -10.82072311 0 0 Z " fill="#000000" transform="translate(228.77734375,29.43359375)"/>
<path d="M0 0 C10.51971751 7.41174808 19.39913323 17.46875296 28.46506119 26.53813839 C30.04279019 28.11287052 31.62072245 29.68739903 33.19884109 31.26174068 C37.45920511 35.51331875 41.71636598 39.76808987 45.97265911 44.02374291 C48.63527014 46.68564088 51.29859292 49.34682459 53.96216965 52.00775623 C62.78430374 60.82113317 71.60438922 69.63655385 80.42176947 78.45468653 C80.89544539 78.9284024 81.3691213 79.40211827 81.85715103 79.89018917 C82.33141113 80.36449015 82.80567123 80.83879113 83.29430285 81.32746487 C90.9904047 89.02397369 98.69149167 96.71547299 106.39483425 104.40473402 C114.32487671 112.32039578 122.25107591 120.23988926 130.17359185 128.1630854 C134.61356114 132.60330931 139.05505982 137.04197613 143.50045395 141.47676945 C147.67787032 145.64449378 151.85044383 149.81700681 156.01938057 153.9932127 C157.54704983 155.5219261 159.07641838 157.04894362 160.60763359 158.57410526 C162.70286791 160.66159334 164.79179188 162.75520588 166.87930679 164.85040951 C167.48145122 165.44741037 168.08359565 166.04441124 168.70398688 166.65950304 C177.36948157 175.39533028 183.88640307 184.66826923 184.67697525 197.29765987 C184.5216127 210.05680939 179.40717978 219.88603282 170.44356155 228.70787716 C169.729051 229.43089323 169.01454045 230.1539093 168.27837807 230.89883494 C165.90138035 233.29796635 163.50707946 235.67900547 161.11227798 238.06035519 C159.39601328 239.78503952 157.68080505 241.51077571 155.96657181 243.23747921 C151.80264181 247.42561453 147.62711893 251.60195843 143.44554924 255.77246359 C140.04428728 259.16514146 136.64778675 262.56251864 133.2545681 265.96324062 C132.77024665 266.44861697 132.28592519 266.93399331 131.78692733 267.43407802 C130.80280396 268.42037249 129.81868843 269.40667479 128.83458067 270.39298484 C119.62036479 279.62659938 110.39054184 288.8444861 101.15550739 298.05727217 C93.2476741 305.94686343 85.35452309 313.85090312 77.47165298 321.76543331 C68.29981541 330.97410621 59.11809465 340.17274999 49.92123562 349.3564384 C48.93867195 350.33766109 47.95612426 351.31889979 46.97359276 352.30015469 C46.24861287 353.02418857 46.24861287 353.02418857 45.50898693 353.76284941 C42.11898112 357.14983885 38.73613956 360.54388165 35.35614204 363.94085598 C30.79755747 368.5219929 26.2232054 373.08699912 21.63820457 377.64169979 C19.96257196 379.31102241 18.29197601 380.98541919 16.6269722 382.66534328 C-4.38481359 403.85002307 -4.38481359 403.85002307 -19.47927475 404.11406612 C-30.36990845 403.94074039 -38.27045919 400.15983677 -46.35427475 392.86406612 C-48.7770021 390.03755088 -50.6265552 387.15496051 -52.35427475 383.86406612 C-52.97302475 382.70906612 -53.59177475 381.55406612 -54.22927475 380.36406612 C-57.03402391 371.91602648 -56.57379539 360.94645239 -53.60427475 352.61406612 C-51.32125531 348.09662156 -48.47353298 344.51863763 -45.01082993 340.87146664 C-44.48502311 340.31027309 -43.95921629 339.74907955 -43.41747594 339.17088014 C-37.27368151 332.651998 -30.94248406 326.31957263 -24.59939194 319.99565792 C-23.26737436 318.66392327 -21.93557863 317.3319667 -20.60398483 315.99980831 C-17.0305973 312.4261369 -13.45416153 308.85553093 -9.87712002 305.28551745 C-6.12373423 301.53843408 -2.37322923 297.7884694 1.37759781 294.03882504 C8.46192345 286.95759258 15.54879155 279.87891041 22.63660407 272.80116826 C30.7136941 264.73530229 38.78790395 256.66655575 46.86188745 248.59758031 C63.45332432 232.01656219 80.04832834 215.43911816 96.64572525 198.86406612 C92.82699586 194.29749552 88.87686861 189.95749154 84.64290237 185.77463436 C84.06960632 185.20401172 83.49631027 184.63338907 82.90564162 184.04547483 C81.00359603 182.15340796 79.09796424 180.26499552 77.19235611 178.3765173 C75.82003595 177.01267363 74.44797763 175.64856645 73.07616043 174.28421688 C70.13091211 171.35563556 67.18429593 168.42843988 64.23674202 165.50217915 C59.57192399 160.8700838 54.91314964 156.23194247 50.25572586 151.5924139 C49.46816703 150.80794154 48.6806082 150.02346918 47.86918396 149.21522492 C46.25931249 147.61166082 44.64944981 146.00808789 43.03959572 144.40450633 C32.20343892 133.61129258 21.36284297 122.8225996 10.5077858 112.0483923 C3.17476968 104.76989999 -4.14928024 97.48251469 -11.46324056 90.18487245 C-15.32937603 86.32809491 -19.19994584 82.47601585 -23.08158684 78.63483906 C-26.73264566 75.0217353 -30.3717849 71.39703911 -34.00229454 67.76329136 C-35.33261443 66.43593174 -36.66719915 65.11282986 -38.00643921 63.79447079 C-47.88363413 54.0644308 -55.52425737 45.4955145 -55.72927475 30.92656612 C-55.77599336 20.18014653 -52.8057552 11.40127274 -45.2253685 3.54375362 C-32.36624215 -7.99992974 -14.42246959 -9.38970512 0 0 Z " fill="#000000" transform="translate(453.35427474975586,29.135933876037598)"/>
<path d="M0 0 C0.64764816 -0.00671722 1.29529633 -0.01343445 1.96257019 -0.02035522 C4.09687024 -0.03930586 6.23085551 -0.04325744 8.36523438 -0.04541016 C9.85209278 -0.05183869 11.33894991 -0.05856709 12.82580566 -0.06558228 C15.93940159 -0.07754661 19.05288662 -0.08126383 22.16650391 -0.08007812 C26.15481613 -0.07987464 30.1424181 -0.10720958 34.13056183 -0.14162254 C37.20008611 -0.16386299 40.26943843 -0.16791661 43.33903503 -0.16685867 C44.80944778 -0.16921769 46.27986505 -0.17805822 47.75019836 -0.19352341 C49.8066285 -0.21313331 51.86151345 -0.20736801 53.91796875 -0.1953125 C55.08726929 -0.19816254 56.25656982 -0.20101257 57.46130371 -0.20394897 C61.13585611 0.40217934 62.22781369 1.35711489 64.45898438 4.29052734 C65.5267334 6.40679932 65.5267334 6.40679932 66.33984375 8.72119141 C66.81435974 10.04464569 66.81435974 10.04464569 67.29846191 11.39483643 C67.62987183 12.35557068 67.96128174 13.31630493 68.30273438 14.30615234 C68.66411499 15.32376648 69.02549561 16.34138062 69.39782715 17.38983154 C70.59545141 20.7697637 71.77702932 24.15508722 72.95898438 27.54052734 C73.80286532 29.93026415 74.64793855 32.31958022 75.49414062 34.70849609 C77.041165 39.07925349 78.5849985 43.45109535 80.12342834 47.82488251 C84.11406611 59.16995726 88.16462303 70.49348185 92.2164917 81.81680298 C93.88454771 86.48030475 95.54946427 91.14492484 97.21444702 95.80952454 C105.60404452 119.3122346 114.03023226 142.80183666 122.45898438 166.29052734 C122.82155334 167.30091064 123.18412231 168.31129395 123.55767822 169.35229492 C127.85672872 181.33220302 132.15709131 193.3116397 136.45898438 205.29052734 C141.20866457 194.64750933 144.94374458 183.64075279 148.7855835 172.6473999 C150.78615343 166.92415693 152.79883164 161.20517277 154.81054688 155.48583984 C155.41009689 153.78018356 155.41009689 153.78018356 156.02175903 152.04006958 C159.41363244 142.39864656 162.85341453 132.77525738 166.33398438 123.16552734 C166.59014526 122.458255 166.84630615 121.75098267 167.11022949 121.02227783 C168.3747332 117.53290942 169.64122218 114.04426711 170.90917969 110.55615234 C172.28346968 106.77526044 173.65392216 102.99298712 175.02359009 99.2104187 C176.14845068 96.10448286 177.27451313 92.99898384 178.40093994 89.89361572 C178.93457781 88.42217146 179.46790902 86.95061595 180.00091553 85.47894287 C180.73052562 83.46517716 181.46170972 81.45199027 182.19335938 79.43896484 C182.60811523 78.2960498 183.02287109 77.15313477 183.45019531 75.97558594 C184.45898438 73.29052734 184.45898438 73.29052734 185.45898438 71.29052734 C209.87898438 71.29052734 234.29898437 71.29052734 259.45898438 71.29052734 C257.61594129 77.43400429 255.79780148 83.31276826 253.43945312 89.23193359 C253.1488501 89.97160873 252.85824707 90.71128387 252.55883789 91.47337341 C251.92569774 93.08406449 251.29082298 94.69407459 250.65438843 96.3034668 C248.8615389 100.83859928 247.08308237 105.37938223 245.30273438 109.91943359 C244.91780319 110.90013824 244.53287201 111.8808429 244.13627625 112.89126587 C239.25550875 125.33801637 234.45401564 137.81535563 229.64648438 150.29052734 C227.75883649 155.18650454 225.87073186 160.08230547 223.98242188 164.97802734 C223.28450027 166.78756142 223.28450027 166.78756142 222.57247925 168.63365173 C217.98515869 180.52432565 213.38106911 192.40846952 208.77148438 204.29052734 C208.38420166 205.28890625 207.99691895 206.28728516 207.59790039 207.31591797 C204.5002867 215.30093507 201.40149049 223.2854931 198.3026123 231.27001953 C195.58333213 238.27663406 192.86460556 245.28346312 190.14648438 252.29052734 C189.76016846 253.28632813 189.37385254 254.28212891 188.97583008 255.30810547 C183.335915 269.84790732 177.71477116 284.39487747 172.10424805 298.94604492 C170.23126152 303.80336977 168.35643687 308.65997806 166.47973633 313.51586914 C165.56526646 315.88216128 164.65079705 318.24845359 163.73632812 320.61474609 C163.29035782 321.76859299 162.84438751 322.92243988 162.38490295 324.11125183 C159.84615662 330.68410989 157.32017701 337.26165398 154.80747986 343.84451294 C153.33209058 347.70553416 151.84863276 351.56342092 150.3633728 355.4206543 C149.68473727 357.18903794 149.00986213 358.95886992 148.33901978 360.73022461 C147.42769977 363.13566161 146.50356417 365.53578164 145.57617188 367.93505859 C145.31675308 368.63008987 145.05733429 369.32512115 144.79005432 370.04121399 C143.27519756 373.91383041 141.76320364 376.71054825 138.45898438 379.29052734 C135.45898438 379.54052734 135.45898438 379.54052734 132.45898438 378.29052734 C129.26671249 372.61320318 126.95828461 366.66764032 124.68554688 360.57568359 C124.1517466 359.16187157 124.1517466 359.16187157 123.60716248 357.71949768 C122.83523379 355.67419713 122.06513096 353.62820673 121.29666138 351.581604 C119.18468703 345.95877856 117.0575556 340.3416874 114.93164062 334.72412109 C114.48568039 333.54487061 114.03972015 332.36562012 113.58024597 331.15063477 C108.620417 318.04918722 103.57440444 304.98129207 98.52148438 291.91552734 C97.59077867 289.5078286 96.66011473 287.1001137 95.72949219 284.69238281 C94.33661195 281.08874921 92.94370732 277.48512511 91.55056763 273.8815918 C86.79785666 261.58572813 82.06403903 249.28262121 77.33398438 236.97802734 C76.9247876 235.91357391 76.51559082 234.84912048 76.09399414 233.75241089 C74.44696044 229.46782624 72.79995161 225.18323204 71.15310669 220.89857483 C68.27196209 213.40323381 65.38761103 205.90913178 62.50195312 198.41552734 C53.99615041 176.32391378 45.51787203 154.22220246 37.08398438 132.10302734 C30.25796797 114.20093565 23.39639662 96.31298916 16.4934082 78.44042969 C15.10009413 74.83224583 13.70811252 71.22355036 12.31640625 67.61474609 C8.52170231 57.7789941 4.72293604 47.94519931 0.87149048 38.13150024 C-0.56588555 34.46715883 -1.99638783 30.80015504 -3.42608643 27.1328125 C-4.07725172 25.46874573 -4.73206004 23.80609913 -5.39080811 22.14501953 C-6.2805896 19.90134873 -7.15819331 17.65327256 -8.03320312 15.40380859 C-8.29137817 14.76288773 -8.54955322 14.12196686 -8.81555176 13.46162415 C-10.29975746 9.60148819 -10.79405762 6.41605788 -10.54101562 2.29052734 C-7.0031403 0.10748049 -4.11318952 0.02681714 0 0 Z " fill="#000000" transform="translate(1237.541015625,29.70947265625)"/>
<path d="M0 0 C24.09 0 48.18 0 73 0 C73 102.96 73 205.92 73 312 C85.87 312 98.74 312 112 312 C116 315 116 315 116.50793457 317.65637207 C116.51111694 318.72432007 116.51429932 319.79226807 116.51757812 320.89257812 C116.53018677 322.10393433 116.54279541 323.31529053 116.55578613 324.56335449 C116.54768921 325.87276001 116.53959229 327.18216553 116.53125 328.53125 C116.53394468 329.88741331 116.53782691 331.24357474 116.54284668 332.59973145 C116.54874304 335.44118658 116.54017534 338.28213854 116.52148438 341.12353516 C116.49869351 344.76569923 116.51181602 348.40668442 116.53577423 352.04880524 C116.55022921 354.84898765 116.54562788 357.64889058 116.53526306 360.44908142 C116.5312973 362.4449439 116.5434446 364.44081725 116.55578613 366.43664551 C116.53687317 368.25367981 116.53687317 368.25367981 116.51757812 370.10742188 C116.51439575 371.17536987 116.51121338 372.24331787 116.50793457 373.34362793 C116 376 116 376 114.35729218 377.64179325 C111.32426032 379.38934257 109.27003052 379.38004384 105.77539062 379.38768005 C103.85738647 379.402537 103.85738647 379.402537 101.90063477 379.41769409 C100.48583888 379.41345608 99.07104393 379.40889823 97.65625 379.40405273 C96.16462695 379.40975564 94.67300827 379.41671959 93.18139648 379.42485046 C89.1318443 379.4428047 85.08250852 379.44160944 81.03292847 379.43590808 C77.65304246 379.43281989 74.27319824 379.43890446 70.89331818 379.44494683 C62.92103099 379.4589975 54.94885095 379.45742591 46.9765625 379.44604492 C38.74898446 379.43455913 30.5217322 379.44864574 22.29419708 379.4754414 C15.23166862 379.49758252 8.16924254 379.5042395 1.10668182 379.49836498 C-3.11214499 379.49499086 -7.33076288 379.4974407 -11.54956055 379.51461601 C-15.51578247 379.53005824 -19.48152077 379.52616038 -23.44772339 379.50731087 C-24.90379747 379.50361756 -26.35990716 379.50675506 -27.81594849 379.51719666 C-29.80239277 379.53035509 -31.78896151 379.5164829 -33.77539062 379.50120544 C-34.88740845 379.50099616 -35.99942627 379.50078688 -37.1451416 379.50057125 C-40.66697247 378.88305296 -41.84697189 377.80459977 -44 375 C-44.50793457 372.26133728 -44.50793457 372.26133728 -44.51757812 369.08569336 C-44.53018677 367.89443344 -44.54279541 366.70317352 -44.55578613 365.47581482 C-44.54768921 364.19344437 -44.53959229 362.91107391 -44.53125 361.58984375 C-44.5350769 360.27085587 -44.53890381 358.95186798 -44.54284668 357.59291077 C-44.54873658 354.8045066 -44.54019489 352.01661586 -44.52148438 349.22827148 C-44.49867162 345.65451009 -44.51183382 342.08194874 -44.53577423 338.50823116 C-44.55370156 335.09783901 -44.54115217 331.68777001 -44.53125 328.27734375 C-44.53934692 326.99294907 -44.54744385 325.70855438 -44.55578613 324.38523865 C-44.54317749 323.19713089 -44.53056885 322.00902313 -44.51757812 320.78491211 C-44.51439575 319.73774521 -44.51121338 318.69057831 -44.50793457 317.61167908 C-44 315 -44 315 -40 312 C-26.8 312 -13.6 312 0 312 C0 209.04 0 106.08 0 0 Z " fill="#000000" transform="translate(1104,30)"/>
<path d="M0 0 C24.09 0 48.18 0 73 0 C73.04406767 30.26872679 73.08100492 60.53743475 73.10213066 90.80618434 C73.10463216 94.37738141 73.10722079 97.94857842 73.10986328 101.51977539 C73.1103879 102.23075478 73.11091252 102.94173416 73.11145304 103.67425837 C73.1201624 115.19559239 73.13593528 126.71690651 73.15430559 138.23822872 C73.1729899 150.05478163 73.18411361 161.8713241 73.18817699 173.68789119 C73.19067813 180.3273378 73.19695478 186.96674733 73.21146011 193.60618019 C73.22499086 199.84984817 73.2292318 206.09345216 73.22621536 212.33713341 C73.22676755 214.63377098 73.23077171 216.93041059 73.23841095 219.22703552 C73.24830165 222.35271544 73.24599042 225.47815097 73.24050903 228.60383606 C73.24633472 229.52114323 73.2521604 230.4384504 73.25816262 231.38355476 C73.25418052 232.21857605 73.25019842 233.05359734 73.24609566 233.91392231 C73.24723482 234.99669483 73.24723482 234.99669483 73.24839699 236.10134155 C73 238 73 238 71 241 C67.73086873 242.08971042 65.28958274 242.14670341 61.84790039 242.17700195 C60.57970963 242.18983719 59.31151886 242.20267242 58.00489807 242.21589661 C56.61915477 242.22406273 55.23340705 242.2315067 53.84765625 242.23828125 C53.14931608 242.24235678 52.45097591 242.2464323 51.73147392 242.25063133 C48.03753838 242.27146732 44.34363975 242.28578155 40.6496582 242.29516602 C36.83510341 242.30624568 33.02112952 242.34066955 29.20678043 242.38033772 C26.2719565 242.40647428 23.33727192 242.41485498 20.40234184 242.41844749 C18.996109 242.42331857 17.58988259 242.43494756 16.1837635 242.45348549 C14.21648316 242.47781652 12.24891973 242.47449807 10.28149414 242.4699707 C9.16247208 242.47583694 8.04345001 242.48170319 6.89051819 242.48774719 C3.13371962 241.8538235 2.2301957 241.09227511 0 238 C-0.5940498 234.83104286 -0.52199447 231.69939249 -0.48101807 228.48358154 C-0.48443577 227.50827838 -0.48785347 226.53297522 -0.49137473 225.52811742 C-0.49797753 222.2511959 -0.47593736 218.97508858 -0.45410156 215.69824219 C-0.45297361 213.35285461 -0.45360593 211.00746561 -0.45587158 208.66207886 C-0.45702167 202.28636289 -0.43346429 195.91094646 -0.40557575 189.53530025 C-0.38313953 183.54996888 -0.37908536 177.56463735 -0.37496826 171.57927194 C-0.36621356 159.7240153 -0.3395933 147.86886874 -0.30175781 136.01367188 C-0.26504222 124.49740144 -0.23672827 112.9811609 -0.21972656 101.46484375 C-0.21815022 100.40006267 -0.21815022 100.40006267 -0.21654204 99.31377086 C-0.21132189 95.75264463 -0.20626706 92.19151818 -0.20129442 88.6303916 C-0.15982694 59.08684458 -0.08608619 29.5434569 0 0 Z " fill="#000000" transform="translate(2279,167)"/>
<path d="M0 0 C1.28813599 -0.01268417 2.57627197 -0.02536835 3.90344238 -0.03843689 C5.3060726 -0.03638553 6.70870171 -0.03339757 8.11132812 -0.02954102 C9.55334723 -0.03410322 10.99536416 -0.0394089 12.43737793 -0.04542542 C15.45687708 -0.0543531 18.47611168 -0.05193705 21.49560547 -0.04199219 C25.36290044 -0.0304954 29.22928329 -0.05072527 33.09645844 -0.07990932 C36.07336209 -0.09826387 39.05004676 -0.09798059 42.0269928 -0.0922718 C43.45273621 -0.09211853 44.87849442 -0.0981677 46.30418396 -0.11056328 C48.2977904 -0.12545643 50.29154704 -0.11217486 52.28515625 -0.09765625 C53.98581238 -0.097407 53.98581238 -0.097407 55.7208252 -0.09715271 C59.48771267 0.54902941 60.40136169 1.30862587 62.64257812 4.40405273 C63.23472116 7.51019932 63.16465435 10.57698112 63.12359619 13.73065186 C63.12701389 14.68553725 63.13043159 15.64042265 63.13395286 16.62424397 C63.14055486 19.8320743 63.11851689 23.03907261 63.09667969 26.24682617 C63.09555171 28.54295329 63.09618409 30.83908185 63.09844971 33.13520813 C63.09959973 39.37663353 63.07604347 45.61775289 63.04815388 51.85910702 C63.02318838 58.37873226 63.02080205 64.89836412 63.01605225 71.41802979 C63.00502302 82.36345897 62.98001981 93.30877486 62.94433594 104.25415039 C62.9076197 115.52790769 62.87930607 126.80163444 62.86230469 138.07543945 C62.86072835 139.11781807 62.86072835 139.11781807 62.85912016 140.18125483 C62.85390001 143.66746071 62.84884518 147.15366679 62.84387255 150.63987303 C62.80240583 179.56135436 62.7286655 208.48266656 62.64257812 237.40405273 C38.55257813 237.40405273 14.46257812 237.40405273 -10.35742188 237.40405273 C-10.44555794 207.6449088 -10.51943208 177.8858366 -10.56168319 148.12659748 C-10.56668619 144.61548533 -10.57186346 141.10437345 -10.57714844 137.59326172 C-10.57819768 136.89424479 -10.57924692 136.19522787 -10.58032796 135.47502861 C-10.59774651 124.14765794 -10.62929212 112.82036824 -10.66603306 101.49304565 C-10.70340226 89.87537699 -10.72534966 78.25775566 -10.73377585 66.64002973 C-10.73900199 60.11230191 -10.75133059 53.5847579 -10.7803421 47.05708885 C-10.80740478 40.91842831 -10.81588538 34.78002808 -10.8098526 28.64131355 C-10.81095694 26.38336652 -10.81896488 24.12541117 -10.83424377 21.86751556 C-10.85402826 18.79413982 -10.84940308 15.72175803 -10.83843994 12.64836121 C-10.85009131 11.74661783 -10.86174267 10.84487445 -10.87374711 9.91580552 C-10.81552501 3.91325769 -10.81552501 3.91325769 -8.5099678 1.35051346 C-5.57897563 0.06177488 -3.20156776 0.01525707 0 0 Z " fill="#000000" transform="translate(1756.357421875,29.595947265625)"/>
<path d="M0 0 C1.28813599 -0.01268417 2.57627197 -0.02536835 3.90344238 -0.03843689 C5.3060726 -0.03638553 6.70870171 -0.03339757 8.11132812 -0.02954102 C9.55334723 -0.03410322 10.99536416 -0.0394089 12.43737793 -0.04542542 C15.45687708 -0.0543531 18.47611168 -0.05193705 21.49560547 -0.04199219 C25.36290044 -0.0304954 29.22928329 -0.05072527 33.09645844 -0.07990932 C36.07336209 -0.09826387 39.05004676 -0.09798059 42.0269928 -0.0922718 C43.45273621 -0.09211853 44.87849442 -0.0981677 46.30418396 -0.11056328 C48.2977904 -0.12545643 50.29154704 -0.11217486 52.28515625 -0.09765625 C53.98581238 -0.097407 53.98581238 -0.097407 55.7208252 -0.09715271 C59.48771267 0.54902941 60.40136169 1.30862587 62.64257812 4.40405273 C63.23472116 7.51019932 63.16465435 10.57698112 63.12359619 13.73065186 C63.12701389 14.68553725 63.13043159 15.64042265 63.13395286 16.62424397 C63.14055486 19.8320743 63.11851689 23.03907261 63.09667969 26.24682617 C63.09555171 28.54295329 63.09618409 30.83908185 63.09844971 33.13520813 C63.09959973 39.37663353 63.07604347 45.61775289 63.04815388 51.85910702 C63.02318838 58.37873226 63.02080205 64.89836412 63.01605225 71.41802979 C63.00502302 82.36345897 62.98001981 93.30877486 62.94433594 104.25415039 C62.9076197 115.52790769 62.87930607 126.80163444 62.86230469 138.07543945 C62.86072835 139.11781807 62.86072835 139.11781807 62.85912016 140.18125483 C62.85390001 143.66746071 62.84884518 147.15366679 62.84387255 150.63987303 C62.80240583 179.56135436 62.7286655 208.48266656 62.64257812 237.40405273 C38.55257812 237.40405273 14.46257813 237.40405273 -10.35742188 237.40405273 C-10.44555794 207.6449088 -10.51943208 177.8858366 -10.56168319 148.12659748 C-10.56668619 144.61548533 -10.57186346 141.10437345 -10.57714844 137.59326172 C-10.57819768 136.89424479 -10.57924692 136.19522787 -10.58032796 135.47502861 C-10.59774651 124.14765794 -10.62929212 112.82036824 -10.66603306 101.49304565 C-10.70340226 89.87537699 -10.72534966 78.25775566 -10.73377585 66.64002973 C-10.73900199 60.11230191 -10.75133059 53.5847579 -10.7803421 47.05708885 C-10.80740478 40.91842831 -10.81588538 34.78002808 -10.8098526 28.64131355 C-10.81095694 26.38336652 -10.81896488 24.12541117 -10.83424377 21.86751556 C-10.85402826 18.79413982 -10.84940308 15.72175803 -10.83843994 12.64836121 C-10.85009131 11.74661783 -10.86174267 10.84487445 -10.87374711 9.91580552 C-10.81552501 3.91325769 -10.81552501 3.91325769 -8.5099678 1.35051346 C-5.57897563 0.06177488 -3.20156776 0.01525707 0 0 Z " fill="#000000" transform="translate(851.357421875,29.595947265625)"/>
<path d="M0 0 C0.8948934 -0.00382555 1.78978681 -0.00765109 2.71179819 -0.01159257 C5.71657557 -0.0219283 8.72116208 -0.01792933 11.72595215 -0.01396179 C13.87766192 -0.01830791 16.02937014 -0.02349071 18.18107605 -0.02944946 C24.03011217 -0.04286046 29.87908375 -0.04341587 35.72813225 -0.04088616 C40.6066606 -0.03981803 45.4851758 -0.04469569 50.36370134 -0.04949158 C61.86938996 -0.0605937 73.37504592 -0.06101999 84.8807373 -0.05497742 C96.76185408 -0.04893379 108.64285255 -0.06125695 120.52394915 -0.08254749 C130.7159477 -0.1001416 140.90790852 -0.10616837 151.0999217 -0.10290974 C157.19106226 -0.10109349 163.28211839 -0.10376721 169.37324524 -0.11762428 C175.09910556 -0.13016265 180.82478085 -0.12829642 186.5506382 -0.11521339 C188.65496189 -0.11283947 190.75929845 -0.11561132 192.86360741 -0.12383652 C195.73049655 -0.13423658 198.59675706 -0.12625773 201.46362305 -0.11352539 C202.30136088 -0.12089968 203.13909871 -0.12827396 204.00222254 -0.13587171 C207.3328206 -0.10463366 209.78661575 0.02054157 212.74807739 1.61806202 C214.95115468 4.05707751 214.73971268 5.90585678 214.74938965 9.15327454 C214.76199829 10.36463074 214.77460693 11.57598694 214.78759766 12.8240509 C214.77950073 14.13345642 214.77140381 15.44286194 214.76306152 16.79194641 C214.76575621 18.14810972 214.76963843 19.50427116 214.7746582 20.86042786 C214.78055457 23.70188299 214.77198687 26.54283495 214.7532959 29.38423157 C214.73050503 33.02639564 214.74362755 36.66738083 214.76758575 40.30950165 C214.78204073 43.10968406 214.77743941 45.909587 214.76707458 48.70977783 C214.76310883 50.70564031 214.77525612 52.70151366 214.78759766 54.69734192 C214.76868469 56.51437622 214.76868469 56.51437622 214.74938965 58.36811829 C214.74620728 59.43606628 214.7430249 60.50401428 214.73974609 61.60432434 C214.23181152 64.26069641 214.23181152 64.26069641 212.7508707 65.9033308 C209.06910268 67.88720849 205.49796219 67.67062943 201.41893005 67.63491821 C200.51924753 67.63889262 199.61956501 67.64286703 198.69261938 67.64696187 C195.67158815 67.65660254 192.65102314 67.644756 189.63000488 67.63301086 C187.46682053 67.63543822 185.30363729 67.639157 183.14045715 67.64407349 C177.26045512 67.65349315 171.38061922 67.64404823 165.50063014 67.63074136 C159.35475428 67.61944233 153.20888679 67.62353313 147.06300354 67.62548828 C136.74221068 67.62637168 126.42148344 67.61528069 116.10070801 67.59687805 C104.15710635 67.57570416 92.21360082 67.57220148 80.26998419 67.57844001 C68.79355339 67.58412829 57.31715656 67.5784947 45.84073067 67.56726646 C40.95042863 67.56261394 36.06014732 67.56174944 31.16984367 67.56385231 C25.41528175 67.56573152 19.66081812 67.55765962 13.90627861 67.54179192 C11.79025174 67.53753793 9.67421491 67.53670595 7.55818558 67.53948212 C4.67791781 67.54268851 1.79794661 67.53366117 -1.08229065 67.52139282 C-2.34910308 67.52706181 -2.34910308 67.52706181 -3.64150769 67.53284532 C-7.53588302 67.50334262 -9.45280769 67.47095027 -12.76818848 65.26069641 C-13.12895203 62.62846375 -13.12895203 62.62846375 -13.10876465 59.2504425 C-13.10853806 57.98928619 -13.10831146 56.72812988 -13.108078 55.42875671 C-13.09275692 54.0472122 -13.07710891 52.66567128 -13.06115723 51.28413391 C-13.0555628 49.87452139 -13.05129198 48.46490303 -13.04829407 47.05528259 C-13.03683302 43.34301177 -13.00735552 39.63109241 -12.97418213 35.91896057 C-12.94350808 32.13187922 -12.92979447 28.34474115 -12.91467285 24.55757141 C-12.88248659 17.12511942 -12.83127557 9.69295714 -12.76818848 2.26069641 C-8.83071171 -0.40690194 -4.5641528 -0.02059046 0 0 Z " fill="#000000" transform="translate(2214.7681884765625,29.739303588867188)"/>
<path d="M0 0 C26.95489837 -0.04666165 53.90979071 -0.08196015 80.8647213 -0.10362434 C93.37955447 -0.11394948 105.89436259 -0.12803338 118.40917969 -0.15087891 C129.31345372 -0.17077498 140.21770961 -0.18370743 151.12200129 -0.18817699 C156.89901831 -0.1907908 162.67598343 -0.19695992 168.45298386 -0.21146011 C173.88490395 -0.22498434 179.31675051 -0.22923315 184.74868584 -0.22621536 C186.74742087 -0.22676785 188.74615824 -0.23077588 190.74487877 -0.23841095 C193.46366785 -0.24829156 196.18217552 -0.24599426 198.90097046 -0.24050903 C199.70057107 -0.24633472 200.50017169 -0.2521604 201.32400262 -0.25816262 C206.77175758 -0.22824242 206.77175758 -0.22824242 209 2 C209.24050903 4.822052 209.24050903 4.822052 209.22705078 8.46923828 C209.22734283 9.13277313 209.22763489 9.79630798 209.22793579 10.47994995 C209.22654056 12.67686972 209.21097067 14.87345186 209.1953125 17.0703125 C209.19158305 18.59202896 209.18873576 20.11374781 209.18673706 21.63546753 C209.17909523 25.64356092 209.15944213 29.6515097 209.1373291 33.6595459 C209.11688244 37.74827112 209.10773788 41.83701966 209.09765625 45.92578125 C209.07619667 53.95058724 209.04205421 61.97527564 209 70 C205.19120794 72.50668328 201.30827529 72.28232333 196.91516113 72.26069641 C196.09377167 72.26452196 195.27238221 72.26834751 194.42610216 72.27228898 C191.67007097 72.2826189 188.91424811 72.27862687 186.15820312 72.2746582 C184.18383084 72.27900464 182.20946024 72.28418756 180.23509216 72.29014587 C174.86951013 72.30355337 169.50399846 72.30411267 164.13840294 72.30158257 C159.66249729 72.30051421 155.18660596 72.30539269 150.71070337 72.310188 C140.1542927 72.32128889 129.5979176 72.32171708 119.04150391 72.31567383 C108.14195131 72.30963024 97.24252767 72.32195354 86.34299707 72.3432439 C76.9917552 72.36084 67.64055445 72.36686447 58.28929663 72.36360615 C52.70117532 72.36179023 47.11314603 72.36446037 41.52503967 72.37832069 C36.27194061 72.39086232 31.01904318 72.38898977 25.76594734 72.37590981 C23.83577978 72.37353659 21.90559819 72.37630521 19.9754467 72.38453293 C17.3450076 72.39493912 14.71525283 72.38694942 12.08483887 72.3742218 C11.3171381 72.38159609 10.54943734 72.38897037 9.75847292 72.39656812 C6.71834149 72.36552081 4.31359091 72.14005424 1.52307892 70.89377117 C-0.74811771 68.0698028 -0.48026288 65.91608039 -0.45410156 62.32543945 C-0.45468567 61.652005 -0.45526978 60.97857056 -0.45587158 60.284729 C-0.45308639 58.06038736 -0.42197713 55.83738853 -0.390625 53.61328125 C-0.38316408 52.07057935 -0.37747044 50.52786797 -0.37347412 48.9851532 C-0.35820584 44.92591152 -0.31891445 40.86724289 -0.2746582 36.80822754 C-0.23373083 32.66585035 -0.21546857 28.5233805 -0.1953125 24.38085938 C-0.15242072 16.25364335 -0.0841557 8.12689297 0 0 Z " fill="#000000" transform="translate(1746,337)"/>
<path d="M0 0 C26.95489837 -0.04666165 53.90979071 -0.08196015 80.8647213 -0.10362434 C93.37955447 -0.11394948 105.89436259 -0.12803338 118.40917969 -0.15087891 C129.31345372 -0.17077498 140.21770961 -0.18370743 151.12200129 -0.18817699 C156.89901831 -0.1907908 162.67598343 -0.19695992 168.45298386 -0.21146011 C173.88490395 -0.22498434 179.31675051 -0.22923315 184.74868584 -0.22621536 C186.74742087 -0.22676785 188.74615824 -0.23077588 190.74487877 -0.23841095 C193.46366785 -0.24829156 196.18217552 -0.24599426 198.90097046 -0.24050903 C199.70057107 -0.24633472 200.50017169 -0.2521604 201.32400262 -0.25816262 C206.77175758 -0.22824242 206.77175758 -0.22824242 209 2 C209.24050903 4.822052 209.24050903 4.822052 209.22705078 8.46923828 C209.22734283 9.13277313 209.22763489 9.79630798 209.22793579 10.47994995 C209.22654056 12.67686972 209.21097067 14.87345186 209.1953125 17.0703125 C209.19158305 18.59202896 209.18873576 20.11374781 209.18673706 21.63546753 C209.17909523 25.64356092 209.15944213 29.6515097 209.1373291 33.6595459 C209.11688244 37.74827112 209.10773788 41.83701966 209.09765625 45.92578125 C209.07619667 53.95058724 209.04205421 61.97527564 209 70 C205.19120794 72.50668328 201.30827529 72.28232333 196.91516113 72.26069641 C196.09377167 72.26452196 195.27238221 72.26834751 194.42610216 72.27228898 C191.67007097 72.2826189 188.91424811 72.27862687 186.15820312 72.2746582 C184.18383084 72.27900464 182.20946024 72.28418756 180.23509216 72.29014587 C174.86951013 72.30355337 169.50399846 72.30411267 164.13840294 72.30158257 C159.66249729 72.30051421 155.18660596 72.30539269 150.71070337 72.310188 C140.1542927 72.32128889 129.5979176 72.32171708 119.04150391 72.31567383 C108.14195131 72.30963024 97.24252767 72.32195354 86.34299707 72.3432439 C76.9917552 72.36084 67.64055445 72.36686447 58.28929663 72.36360615 C52.70117532 72.36179023 47.11314603 72.36446037 41.52503967 72.37832069 C36.27194061 72.39086232 31.01904318 72.38898977 25.76594734 72.37590981 C23.83577978 72.37353659 21.90559819 72.37630521 19.9754467 72.38453293 C17.3450076 72.39493912 14.71525283 72.38694942 12.08483887 72.3742218 C11.3171381 72.38159609 10.54943734 72.38897037 9.75847292 72.39656812 C6.71834149 72.36552081 4.31359091 72.14005424 1.52307892 70.89377117 C-0.74811771 68.0698028 -0.48026288 65.91608039 -0.45410156 62.32543945 C-0.45468567 61.652005 -0.45526978 60.97857056 -0.45587158 60.284729 C-0.45308639 58.06038736 -0.42197713 55.83738853 -0.390625 53.61328125 C-0.38316408 52.07057935 -0.37747044 50.52786797 -0.37347412 48.9851532 C-0.35820584 44.92591152 -0.31891445 40.86724289 -0.2746582 36.80822754 C-0.23373083 32.66585035 -0.21546857 28.5233805 -0.1953125 24.38085938 C-0.15242072 16.25364335 -0.0841557 8.12689297 0 0 Z " fill="#000000" transform="translate(841,337)"/>
</svg>
