<?xml version="1.0" encoding="UTF-8"?>
<svg version="1.1" xmlns="http://www.w3.org/2000/svg" width="2450" height="437">
<path d="M0 0 C1.0893097 -0.00512655 1.0893097 -0.00512655 2.20062566 -0.01035666 C4.63466031 -0.01694675 7.0675928 0.00505783 9.50152588 0.0269165 C11.24593581 0.02804474 12.99034764 0.02741158 14.73475647 0.02514648 C19.47213784 0.02399749 24.20911518 0.04753679 28.94640255 0.07544231 C33.89649858 0.10042507 38.84660358 0.1027955 43.79675293 0.10754395 C53.17131572 0.11998291 62.54569222 0.15281702 71.92017293 0.1929419 C82.5923459 0.23763093 93.2645277 0.25963944 103.93677092 0.27972364 C125.89110021 0.32154886 147.84517408 0.39491276 169.79937744 0.48101807 C169.79937744 23.25101807 169.79937744 46.02101807 169.79937744 69.48101807 C134.48937744 69.48101807 99.17937744 69.48101807 62.79937744 69.48101807 C62.79937744 97.53101807 62.79937744 125.58101807 62.79937744 154.48101807 C73.67648682 154.45781494 84.55359619 154.43461182 95.76031494 154.41070557 C102.63271172 154.40049194 109.50510302 154.39078185 116.37750244 154.38336182 C127.29646678 154.37147836 138.21540034 154.35748206 149.13433838 154.33013916 C157.08530055 154.31023803 165.03623783 154.29730944 172.98722422 154.29284108 C177.19929181 154.29022812 181.41128817 154.28406444 185.62333298 154.26955795 C189.58443 154.25602573 193.54542617 154.25178653 197.50654411 154.2548027 C198.9634614 154.25425058 200.42038192 154.25024722 201.87727928 154.24260712 C203.86026979 154.23271457 205.8433139 154.23622724 207.82632446 154.24050903 C209.49384797 154.23774365 209.49384797 154.23774365 211.19505882 154.23492241 C213.79937744 154.48101807 213.79937744 154.48101807 215.79937744 156.48101807 C216.06007385 159.17572021 216.06007385 159.17572021 216.07403564 162.64312744 C216.08356766 163.93786987 216.09309967 165.2326123 216.10292053 166.56658936 C216.10265914 167.98598253 216.10172226 169.40537573 216.10015869 170.82476807 C216.10404388 172.27443566 216.10837818 173.72410212 216.11314392 175.17376709 C216.12061138 178.21355885 216.12031085 181.25323447 216.11505127 184.29302979 C216.10925209 188.19404963 216.12619539 192.09459539 216.14939594 195.9955368 C216.16410582 198.98948967 216.16500884 201.98332759 216.16188622 204.97731018 C216.16240069 206.41586751 216.16766208 207.85443107 216.17769814 209.29295349 C216.18999241 211.3015686 216.18135508 213.3102792 216.17169189 215.31890869 C216.17232132 216.46315308 216.17295074 217.60739746 216.17359924 218.78631592 C216.05010605 219.67556763 215.92661285 220.56481934 215.79937744 221.48101807 C212.28763421 223.82218022 210.89685368 223.72846581 206.74403381 223.7215271 C205.47778671 223.72427643 204.21153961 223.72702576 202.90692139 223.7298584 C201.50103665 223.72278009 200.09515288 223.71551048 198.68927002 223.70806885 C197.21101387 223.70750479 195.73275716 223.70782118 194.25450134 223.70895386 C190.23822924 223.70952859 186.22207616 223.69775479 182.20583177 223.68380594 C178.00978079 223.67131867 173.81372721 223.67012967 169.61766052 223.66775513 C161.670391 223.66153446 153.72317638 223.64511571 145.77593106 223.62505615 C135.03782646 223.5985395 124.29970688 223.58772925 113.5615778 223.57605171 C96.6408032 223.55723553 79.72014449 223.51739377 62.79937744 223.48101807 C62.79937744 251.20101807 62.79937744 278.92101807 62.79937744 307.48101807 C98.10937744 307.48101807 133.41937744 307.48101807 169.79937744 307.48101807 C169.79937744 330.91101807 169.79937744 354.34101807 169.79937744 378.48101807 C146.7905224 378.57125976 123.7818103 378.6449659 100.77282333 378.68826675 C90.0897158 378.70890512 79.40672589 378.7370501 68.72369385 378.78277588 C59.41398328 378.82260459 50.10435788 378.8484416 40.79456449 378.85737205 C35.86359443 378.86259352 30.93286808 378.87489232 26.00197601 378.90393829 C21.36284758 378.93104475 16.72406376 378.93947274 12.08486366 378.93344879 C10.38043916 378.93455117 8.67600339 378.94253348 6.97164726 378.95783997 C4.64733888 378.97769395 2.32433759 378.97297502 0 378.96203613 C-1.95235754 378.96756689 -1.95235754 378.96756689 -3.94415665 378.97320938 C-7.8769533 378.37879556 -8.79603137 377.58612699 -11.20062256 374.48101807 C-11.70201921 371.61637592 -11.70201921 371.61637592 -11.70398712 368.22157288 C-11.71441811 366.92721911 -11.7248491 365.63286535 -11.73559618 364.29928875 C-11.72694761 362.85961881 -11.71792097 361.41995111 -11.70855713 359.98028564 C-11.71316436 358.453502 -11.71951607 356.92672279 -11.72746611 355.39995289 C-11.74420724 351.19801026 -11.73589152 346.99642972 -11.72352123 342.79448557 C-11.71449254 338.26544106 -11.7284296 333.73645999 -11.73944092 329.20742798 C-11.7572541 320.33251849 -11.75337372 311.45774409 -11.74179035 302.58282924 C-11.7327673 295.3718484 -11.73152714 288.16090551 -11.73588562 280.94992065 C-11.73649855 279.92473385 -11.73711148 278.89954704 -11.73774299 277.84329396 C-11.73902185 275.76083301 -11.74031871 273.67837207 -11.74163336 271.59591115 C-11.75304735 252.05552923 -11.7399126 232.5152223 -11.71843189 212.97485268 C-11.70056017 196.19789889 -11.70366405 179.4210558 -11.72210693 162.644104 C-11.74349918 143.17501215 -11.75194864 123.70598608 -11.73965788 104.23688412 C-11.73838364 102.16196125 -11.73712616 100.08703837 -11.73588562 98.01211548 C-11.73526852 96.99113748 -11.73465142 95.97015948 -11.73401561 94.91824275 C-11.73055777 87.71353538 -11.7364004 80.50886963 -11.74580383 73.3041687 C-11.75700692 64.52744194 -11.75401945 55.75085833 -11.73268086 46.97414804 C-11.72214761 42.49365498 -11.71808715 38.01340083 -11.73127747 33.53290939 C-11.74316037 29.43462198 -11.7367072 25.33679586 -11.71536726 21.23855054 C-11.71088369 19.75274532 -11.71320663 18.26690146 -11.72287041 16.7811209 C-11.73496633 14.76759484 -11.72021357 12.75396026 -11.70398712 10.74046326 C-11.70333771 9.62017825 -11.7026883 8.49989325 -11.70201921 7.34566021 C-10.5172937 0.5769381 -6.12058217 -0.01733876 0 0 Z " fill="#FDFDFD" transform="translate(1524.2006225585938,21.51898193359375)"/>
<path d="M0 0 C1.0893097 -0.00384491 1.0893097 -0.00384491 2.20062566 -0.0077675 C4.6344848 -0.01270971 7.06772387 0.00379426 9.50152588 0.02018738 C11.24593593 0.02103356 12.99034704 0.02055869 14.73475647 0.01885986 C19.47206521 0.01799813 24.20914668 0.03565273 28.94640255 0.05658174 C33.89650766 0.07531884 38.84661782 0.07709664 43.79675293 0.08065796 C53.17127658 0.08998715 62.54569545 0.11461277 71.92017293 0.14470643 C82.59235743 0.17822323 93.2645469 0.19472961 103.93677092 0.20979273 C125.8910446 0.24116156 147.8451746 0.29618457 169.79937744 0.36076355 C169.79937744 23.13076355 169.79937744 45.90076355 169.79937744 69.36076355 C134.48937744 69.36076355 99.17937744 69.36076355 62.79937744 69.36076355 C62.79937744 97.41076355 62.79937744 125.46076355 62.79937744 154.36076355 C73.67648682 154.33756042 84.55359619 154.3143573 95.76031494 154.29045105 C102.63271172 154.28023743 109.50510302 154.27052734 116.37750244 154.2631073 C127.29646678 154.25122384 138.21540034 154.23722755 149.13433838 154.20988464 C157.08530055 154.18998351 165.03623783 154.17705492 172.98722422 154.17258656 C177.19929181 154.16997361 181.41128817 154.16380992 185.62333298 154.14930344 C189.58443 154.13577121 193.54542617 154.13153202 197.50654411 154.13454819 C198.9634614 154.13399606 200.42038192 154.1299927 201.87727928 154.1223526 C203.86026979 154.11246005 205.8433139 154.11597273 207.82632446 154.12025452 C209.49384797 154.11748914 209.49384797 154.11748914 211.19505882 154.11466789 C213.79937744 154.36076355 213.79937744 154.36076355 215.79937744 156.36076355 C216.06680298 159.01077271 216.06680298 159.01077271 216.08990479 162.41520691 C216.10266449 163.6867009 216.11542419 164.95819489 216.12857056 166.26821899 C216.13162777 167.66234689 216.13385576 169.05647682 216.13531494 170.4506073 C216.14173935 171.87545915 216.14846743 173.30030965 216.15548706 174.72515869 C216.16747185 177.71366942 216.17116665 180.70206446 216.16998291 183.69059753 C216.16977961 187.52213796 216.19708682 191.35293757 216.23152733 195.18430233 C216.25375316 198.12768976 216.25782181 201.07089766 216.25676346 204.01436043 C216.25912576 205.42698789 216.26798466 206.83961983 216.28342819 208.25216484 C216.3029977 210.22698824 216.29475095 212.20202831 216.28521729 214.17692566 C216.28806732 215.30118454 216.29091736 216.42544342 216.29385376 217.58377075 C215.79937744 220.36076355 215.79937744 220.36076355 214.15207481 222.01177788 C211.139602 223.73906448 209.12809867 223.73028052 205.66174316 223.7215271 C204.40253555 223.72565109 203.14332794 223.72977509 201.84596252 223.73402405 C200.45315337 223.7234073 199.06034639 223.71250288 197.6675415 223.70133972 C196.19899005 223.70049338 194.73043732 223.70096872 193.2618866 223.70266724 C189.2766022 223.70352836 185.2915884 223.6858837 181.30636692 223.66494536 C177.14102613 223.64619811 172.97567921 223.64442966 168.81030273 223.64086914 C160.92324017 223.63154293 153.03630227 223.60692137 145.14929461 223.57682067 C134.49112494 223.53702638 123.83292119 223.52082644 113.17469597 223.50331402 C96.38282973 223.47510067 79.59122659 223.41533504 62.79937744 223.36076355 C62.79937744 251.08076355 62.79937744 278.80076355 62.79937744 307.36076355 C98.10937744 307.36076355 133.41937744 307.36076355 169.79937744 307.36076355 C169.79937744 330.79076355 169.79937744 354.22076355 169.79937744 378.36076355 C146.7905224 378.45100524 123.7818103 378.52471139 100.77282333 378.56801224 C90.0897158 378.58865061 79.40672589 378.61679558 68.72369385 378.66252136 C59.41398328 378.70235008 50.10435788 378.72818708 40.79456449 378.73711753 C35.86359443 378.742339 30.93286808 378.7546378 26.00197601 378.78368378 C21.36284758 378.81079024 16.72406376 378.81921823 12.08486366 378.81319427 C10.38043916 378.81429665 8.67600339 378.82227897 6.97164726 378.83758545 C4.64733888 378.85743943 2.32433759 378.8527205 0 378.84178162 C-1.95235754 378.84731237 -1.95235754 378.84731237 -3.94415665 378.85295486 C-7.87736189 378.25847928 -8.79640665 377.46690129 -11.20062256 374.36076355 C-11.70201921 371.48855871 -11.70201921 371.48855871 -11.70398712 368.08290768 C-11.71963361 366.13522689 -11.71963361 366.13522689 -11.73559618 364.14819902 C-11.72694761 362.70390983 -11.71792097 361.25962287 -11.70855713 359.81533813 C-11.71316433 358.28371702 -11.71951604 356.75210031 -11.72746611 355.2204929 C-11.74420738 351.00521847 -11.73589147 346.79030497 -11.72352123 342.57502902 C-11.71449267 338.03168865 -11.72842948 333.48841153 -11.73944092 328.94508362 C-11.75725382 320.04243579 -11.75337397 311.13992263 -11.74179035 302.23726945 C-11.73276775 295.00435023 -11.73152694 287.77146884 -11.73588562 280.53854561 C-11.73649855 279.51029472 -11.73711148 278.48204383 -11.73774299 277.42263382 C-11.73902185 275.33397013 -11.7403187 273.24530646 -11.74163336 271.1566428 C-11.75304712 251.55858722 -11.73991266 231.9606064 -11.71843189 212.36256308 C-11.70055753 195.53355665 -11.70366627 178.70466057 -11.72210693 161.87565613 C-11.743495 142.34761028 -11.75195122 122.81962999 -11.73965788 103.29157406 C-11.73838364 101.21077129 -11.73712615 99.12996851 -11.73588562 97.04916573 C-11.73526852 96.0252829 -11.73465142 95.00140008 -11.73401561 93.94649051 C-11.73055671 86.71877106 -11.73640261 79.49109308 -11.74580383 72.26338005 C-11.75700218 63.46027443 -11.7540294 54.65731154 -11.73268086 45.85422235 C-11.72214158 41.35967655 -11.71809735 36.86536905 -11.73127747 32.37082481 C-11.74314786 28.26087068 -11.73672818 24.15137696 -11.71536726 20.04146493 C-11.71087835 18.55029395 -11.71321839 17.05908452 -11.72287041 15.56793802 C-11.73493851 13.54957771 -11.7202338 11.53110929 -11.70398712 9.51277828 C-11.70333771 8.38907579 -11.7026883 7.26537331 -11.70201921 6.10761923 C-11.20062256 3.36076355 -11.20062256 3.36076355 -9.37269139 1.4993341 C-6.2012775 -0.16308028 -3.56857342 -0.00758195 0 0 Z " fill="#FDFDFD" transform="translate(1980.2006225585938,21.639236450195313)"/>
<path d="M0 0 C1.18464844 -0.01417969 2.36929688 -0.02835938 3.58984375 -0.04296875 C12.3960113 0.54146757 21.91789767 4.91337885 28.0625 11.25 C34.42365019 20.59293934 39.82786273 30.54981756 38.0625 42.1875 C36.61314357 46.94967112 34.90496311 51.56160155 33.0625 56.1875 C32.4025 56.1875 31.7425 56.1875 31.0625 56.1875 C30.794375 56.991875 30.52625 57.79625 30.25 58.625 C29.858125 59.470625 29.46625 60.31625 29.0625 61.1875 C28.0725 61.5175 27.0825 61.8475 26.0625 62.1875 C25.36098848 63.5028341 24.69724075 64.83867592 24.0625 66.1875 C22.5625 67.9375 22.5625 67.9375 21.0625 69.1875 C20.4025 69.1875 19.7425 69.1875 19.0625 69.1875 C18.794375 69.826875 18.52625 70.46625 18.25 71.125 C17.0625 73.1875 17.0625 73.1875 14.0625 74.1875 C14.0625 74.8475 14.0625 75.5075 14.0625 76.1875 C13.4025 76.1875 12.7425 76.1875 12.0625 76.1875 C11.794375 76.826875 11.52625 77.46625 11.25 78.125 C10.0625 80.1875 10.0625 80.1875 7.0625 81.1875 C7.0625 81.8475 7.0625 82.5075 7.0625 83.1875 C6.4025 83.1875 5.7425 83.1875 5.0625 83.1875 C4.794375 83.826875 4.52625 84.46625 4.25 85.125 C3.0625 87.1875 3.0625 87.1875 0.0625 88.1875 C-0.63901152 89.5028341 -1.30275925 90.83867592 -1.9375 92.1875 C-3.4375 93.9375 -3.4375 93.9375 -4.9375 95.1875 C-5.5975 95.1875 -6.2575 95.1875 -6.9375 95.1875 C-7.205625 95.826875 -7.47375 96.46625 -7.75 97.125 C-8.9375 99.1875 -8.9375 99.1875 -11.9375 100.1875 C-11.9375 100.8475 -11.9375 101.5075 -11.9375 102.1875 C-12.5975 102.1875 -13.2575 102.1875 -13.9375 102.1875 C-14.205625 102.826875 -14.47375 103.46625 -14.75 104.125 C-15.9375 106.1875 -15.9375 106.1875 -18.9375 107.1875 C-19.63901152 108.5028341 -20.30275925 109.83867592 -20.9375 111.1875 C-22.4375 112.9375 -22.4375 112.9375 -23.9375 114.1875 C-24.5975 114.1875 -25.2575 114.1875 -25.9375 114.1875 C-26.205625 114.826875 -26.47375 115.46625 -26.75 116.125 C-27.9375 118.1875 -27.9375 118.1875 -30.9375 119.1875 C-30.9375 119.8475 -30.9375 120.5075 -30.9375 121.1875 C-31.5975 121.1875 -32.2575 121.1875 -32.9375 121.1875 C-33.205625 121.826875 -33.47375 122.46625 -33.75 123.125 C-34.9375 125.1875 -34.9375 125.1875 -37.9375 126.1875 C-37.9375 126.8475 -37.9375 127.5075 -37.9375 128.1875 C-38.5975 128.1875 -39.2575 128.1875 -39.9375 128.1875 C-40.205625 128.826875 -40.47375 129.46625 -40.75 130.125 C-41.9375 132.1875 -41.9375 132.1875 -44.9375 133.1875 C-45.63901152 134.5028341 -46.30275925 135.83867592 -46.9375 137.1875 C-48.4375 138.9375 -48.4375 138.9375 -49.9375 140.1875 C-50.5975 140.1875 -51.2575 140.1875 -51.9375 140.1875 C-52.205625 140.826875 -52.47375 141.46625 -52.75 142.125 C-53.9375 144.1875 -53.9375 144.1875 -56.9375 145.1875 C-56.9375 145.8475 -56.9375 146.5075 -56.9375 147.1875 C-57.5975 147.1875 -58.2575 147.1875 -58.9375 147.1875 C-59.205625 147.826875 -59.47375 148.46625 -59.75 149.125 C-60.9375 151.1875 -60.9375 151.1875 -63.9375 152.1875 C-64.63901152 153.5028341 -65.30275925 154.83867592 -65.9375 156.1875 C-67.4375 157.9375 -67.4375 157.9375 -68.9375 159.1875 C-69.5975 159.1875 -70.2575 159.1875 -70.9375 159.1875 C-71.205625 159.826875 -71.47375 160.46625 -71.75 161.125 C-72.9375 163.1875 -72.9375 163.1875 -75.9375 164.1875 C-75.9375 164.8475 -75.9375 165.5075 -75.9375 166.1875 C-76.5975 166.1875 -77.2575 166.1875 -77.9375 166.1875 C-78.205625 166.826875 -78.47375 167.46625 -78.75 168.125 C-79.9375 170.1875 -79.9375 170.1875 -82.9375 171.1875 C-82.9375 171.8475 -82.9375 172.5075 -82.9375 173.1875 C-83.5975 173.1875 -84.2575 173.1875 -84.9375 173.1875 C-85.205625 173.826875 -85.47375 174.46625 -85.75 175.125 C-86.9375 177.1875 -86.9375 177.1875 -89.9375 178.1875 C-90.63901152 179.5028341 -91.30275925 180.83867592 -91.9375 182.1875 C-93.4375 183.9375 -93.4375 183.9375 -94.9375 185.1875 C-95.5975 185.1875 -96.2575 185.1875 -96.9375 185.1875 C-97.205625 185.826875 -97.47375 186.46625 -97.75 187.125 C-98.9375 189.1875 -98.9375 189.1875 -101.9375 190.1875 C-101.9375 190.8475 -101.9375 191.5075 -101.9375 192.1875 C-102.5975 192.1875 -103.2575 192.1875 -103.9375 192.1875 C-104.205625 192.826875 -104.47375 193.46625 -104.75 194.125 C-105.9375 196.1875 -105.9375 196.1875 -108.9375 197.1875 C-109.63901152 198.5028341 -110.30275925 199.83867592 -110.9375 201.1875 C-112.4375 202.9375 -112.4375 202.9375 -113.9375 204.1875 C-114.5975 204.1875 -115.2575 204.1875 -115.9375 204.1875 C-115.9375 205.1775 -115.9375 206.1675 -115.9375 207.1875 C-115.0403125 207.5896875 -115.0403125 207.5896875 -114.125 208 C-111.93902146 209.18667406 -110.52417406 210.28349113 -108.9375 212.1875 C-108.9375 212.8475 -108.9375 213.5075 -108.9375 214.1875 C-108.0403125 214.5896875 -108.0403125 214.5896875 -107.125 215 C-104.93902146 216.18667406 -103.52417406 217.28349113 -101.9375 219.1875 C-101.9375 219.8475 -101.9375 220.5075 -101.9375 221.1875 C-101.298125 221.455625 -100.65875 221.72375 -100 222 C-97.9375 223.1875 -97.9375 223.1875 -96.9375 226.1875 C-95.6221659 226.88901152 -94.28632408 227.55275925 -92.9375 228.1875 C-91.1875 229.6875 -91.1875 229.6875 -89.9375 231.1875 C-89.9375 231.8475 -89.9375 232.5075 -89.9375 233.1875 C-89.0403125 233.5896875 -89.0403125 233.5896875 -88.125 234 C-85.93902146 235.18667406 -84.52417406 236.28349113 -82.9375 238.1875 C-82.9375 238.8475 -82.9375 239.5075 -82.9375 240.1875 C-82.298125 240.455625 -81.65875 240.72375 -81 241 C-78.9375 242.1875 -78.9375 242.1875 -77.9375 245.1875 C-76.6221659 245.88901152 -75.28632408 246.55275925 -73.9375 247.1875 C-72.1875 248.6875 -72.1875 248.6875 -70.9375 250.1875 C-70.9375 250.8475 -70.9375 251.5075 -70.9375 252.1875 C-70.339375 252.455625 -69.74125 252.72375 -69.125 253 C-66.93902146 254.18667406 -65.52417406 255.28349113 -63.9375 257.1875 C-63.9375 257.8475 -63.9375 258.5075 -63.9375 259.1875 C-63.339375 259.455625 -62.74125 259.72375 -62.125 260 C-59.93902146 261.18667406 -58.52417406 262.28349113 -56.9375 264.1875 C-56.9375 264.8475 -56.9375 265.5075 -56.9375 266.1875 C-56.298125 266.455625 -55.65875 266.72375 -55 267 C-52.9375 268.1875 -52.9375 268.1875 -51.9375 271.1875 C-50.6221659 271.88901152 -49.28632408 272.55275925 -47.9375 273.1875 C-46.1875 274.6875 -46.1875 274.6875 -44.9375 276.1875 C-44.9375 276.8475 -44.9375 277.5075 -44.9375 278.1875 C-44.339375 278.455625 -43.74125 278.72375 -43.125 279 C-40.93902146 280.18667406 -39.52417406 281.28349113 -37.9375 283.1875 C-37.9375 283.8475 -37.9375 284.5075 -37.9375 285.1875 C-37.298125 285.455625 -36.65875 285.72375 -36 286 C-33.9375 287.1875 -33.9375 287.1875 -32.9375 290.1875 C-31.6221659 290.88901152 -30.28632408 291.55275925 -28.9375 292.1875 C-27.1875 293.6875 -27.1875 293.6875 -25.9375 295.1875 C-25.9375 295.8475 -25.9375 296.5075 -25.9375 297.1875 C-25.339375 297.455625 -24.74125 297.72375 -24.125 298 C-21.93902146 299.18667406 -20.52417406 300.28349113 -18.9375 302.1875 C-18.9375 302.8475 -18.9375 303.5075 -18.9375 304.1875 C-18.339375 304.455625 -17.74125 304.72375 -17.125 305 C-14.93902146 306.18667406 -13.52417406 307.28349113 -11.9375 309.1875 C-11.9375 309.8475 -11.9375 310.5075 -11.9375 311.1875 C-11.298125 311.455625 -10.65875 311.72375 -10 312 C-7.9375 313.1875 -7.9375 313.1875 -6.9375 316.1875 C-5.6221659 316.88901152 -4.28632408 317.55275925 -2.9375 318.1875 C-1.1875 319.6875 -1.1875 319.6875 0.0625 321.1875 C0.0625 321.8475 0.0625 322.5075 0.0625 323.1875 C0.660625 323.455625 1.25875 323.72375 1.875 324 C4.06097854 325.18667406 5.47582594 326.28349113 7.0625 328.1875 C7.0625 328.8475 7.0625 329.5075 7.0625 330.1875 C7.701875 330.455625 8.34125 330.72375 9 331 C11.0625 332.1875 11.0625 332.1875 12.0625 335.1875 C13.3778341 335.88901152 14.71367592 336.55275925 16.0625 337.1875 C17.8125 338.6875 17.8125 338.6875 19.0625 340.1875 C19.0625 340.8475 19.0625 341.5075 19.0625 342.1875 C19.660625 342.455625 20.25875 342.72375 20.875 343 C23.06097854 344.18667406 24.47582594 345.28349113 26.0625 347.1875 C26.0625 347.8475 26.0625 348.5075 26.0625 349.1875 C27.0525 349.5175 28.0425 349.8475 29.0625 350.1875 C30.25 352.75 30.25 352.75 31.0625 355.1875 C31.7225 355.1875 32.3825 355.1875 33.0625 355.1875 C37.36291124 366.70645868 40.57929618 375.91851335 35.25390625 387.73828125 C34.86074219 388.54652344 34.46757812 389.35476563 34.0625 390.1875 C33.70027344 390.98542969 33.33804688 391.78335937 32.96484375 392.60546875 C28.4309312 401.78087822 20.32545232 406.39672083 11.0625 410.1875 C7.625 411 7.625 411 4.0625 411.1875 C3.21816406 411.23777344 2.37382812 411.28804688 1.50390625 411.33984375 C-9.46044322 411.7200223 -17.62831389 408.44155137 -25.9375 401.1875 C-26.2675 400.1975 -26.5975 399.2075 -26.9375 398.1875 C-27.5975 397.8575 -28.2575 397.5275 -28.9375 397.1875 C-30.9375 396.1875 -30.9375 396.1875 -31.9375 393.1875 C-33.2528341 392.48598848 -34.58867592 391.82224075 -35.9375 391.1875 C-37.6875 389.6875 -37.6875 389.6875 -38.9375 388.1875 C-38.9375 387.5275 -38.9375 386.8675 -38.9375 386.1875 C-39.535625 385.919375 -40.13375 385.65125 -40.75 385.375 C-42.93597854 384.18832594 -44.35082594 383.09150887 -45.9375 381.1875 C-45.9375 380.5275 -45.9375 379.8675 -45.9375 379.1875 C-46.576875 378.919375 -47.21625 378.65125 -47.875 378.375 C-49.9375 377.1875 -49.9375 377.1875 -50.9375 374.1875 C-52.2528341 373.48598848 -53.58867592 372.82224075 -54.9375 372.1875 C-56.6875 370.6875 -56.6875 370.6875 -57.9375 369.1875 C-57.9375 368.5275 -57.9375 367.8675 -57.9375 367.1875 C-58.535625 366.919375 -59.13375 366.65125 -59.75 366.375 C-61.93597854 365.18832594 -63.35082594 364.09150887 -64.9375 362.1875 C-64.9375 361.5275 -64.9375 360.8675 -64.9375 360.1875 C-65.535625 359.919375 -66.13375 359.65125 -66.75 359.375 C-68.93597854 358.18832594 -70.35082594 357.09150887 -71.9375 355.1875 C-71.9375 354.5275 -71.9375 353.8675 -71.9375 353.1875 C-72.576875 352.919375 -73.21625 352.65125 -73.875 352.375 C-75.9375 351.1875 -75.9375 351.1875 -76.9375 348.1875 C-78.2528341 347.48598848 -79.58867592 346.82224075 -80.9375 346.1875 C-82.6875 344.6875 -82.6875 344.6875 -83.9375 343.1875 C-83.9375 342.5275 -83.9375 341.8675 -83.9375 341.1875 C-84.8346875 340.7853125 -84.8346875 340.7853125 -85.75 340.375 C-87.93597854 339.18832594 -89.35082594 338.09150887 -90.9375 336.1875 C-90.9375 335.5275 -90.9375 334.8675 -90.9375 334.1875 C-91.576875 333.919375 -92.21625 333.65125 -92.875 333.375 C-94.9375 332.1875 -94.9375 332.1875 -95.9375 329.1875 C-97.2528341 328.48598848 -98.58867592 327.82224075 -99.9375 327.1875 C-101.6875 325.6875 -101.6875 325.6875 -102.9375 324.1875 C-102.9375 323.5275 -102.9375 322.8675 -102.9375 322.1875 C-103.8346875 321.7853125 -103.8346875 321.7853125 -104.75 321.375 C-106.93597854 320.18832594 -108.35082594 319.09150887 -109.9375 317.1875 C-109.9375 316.5275 -109.9375 315.8675 -109.9375 315.1875 C-110.8346875 314.7853125 -110.8346875 314.7853125 -111.75 314.375 C-113.93597854 313.18832594 -115.35082594 312.09150887 -116.9375 310.1875 C-116.9375 309.5275 -116.9375 308.8675 -116.9375 308.1875 C-117.576875 307.919375 -118.21625 307.65125 -118.875 307.375 C-120.9375 306.1875 -120.9375 306.1875 -121.9375 303.1875 C-123.2528341 302.48598848 -124.58867592 301.82224075 -125.9375 301.1875 C-127.6875 299.6875 -127.6875 299.6875 -128.9375 298.1875 C-128.9375 297.5275 -128.9375 296.8675 -128.9375 296.1875 C-129.8346875 295.7853125 -129.8346875 295.7853125 -130.75 295.375 C-132.93597854 294.18832594 -134.35082594 293.09150887 -135.9375 291.1875 C-135.9375 290.5275 -135.9375 289.8675 -135.9375 289.1875 C-136.576875 288.919375 -137.21625 288.65125 -137.875 288.375 C-139.9375 287.1875 -139.9375 287.1875 -140.9375 284.1875 C-142.2528341 283.48598848 -143.58867592 282.82224075 -144.9375 282.1875 C-146.6875 280.6875 -146.6875 280.6875 -147.9375 279.1875 C-147.9375 278.5275 -147.9375 277.8675 -147.9375 277.1875 C-148.535625 276.919375 -149.13375 276.65125 -149.75 276.375 C-151.93597854 275.18832594 -153.35082594 274.09150887 -154.9375 272.1875 C-154.9375 271.5275 -154.9375 270.8675 -154.9375 270.1875 C-155.535625 269.919375 -156.13375 269.65125 -156.75 269.375 C-158.93597854 268.18832594 -160.35082594 267.09150887 -161.9375 265.1875 C-161.9375 264.5275 -161.9375 263.8675 -161.9375 263.1875 C-162.576875 262.919375 -163.21625 262.65125 -163.875 262.375 C-165.9375 261.1875 -165.9375 261.1875 -166.9375 258.1875 C-168.2528341 257.48598848 -169.58867592 256.82224075 -170.9375 256.1875 C-172.6875 254.6875 -172.6875 254.6875 -173.9375 253.1875 C-173.9375 252.5275 -173.9375 251.8675 -173.9375 251.1875 C-174.535625 250.919375 -175.13375 250.65125 -175.75 250.375 C-177.93597854 249.18832594 -179.35082594 248.09150887 -180.9375 246.1875 C-180.9375 245.5275 -180.9375 244.8675 -180.9375 244.1875 C-181.576875 243.919375 -182.21625 243.65125 -182.875 243.375 C-184.9375 242.1875 -184.9375 242.1875 -185.9375 239.1875 C-187.2528341 238.48598848 -188.58867592 237.82224075 -189.9375 237.1875 C-191.6875 235.6875 -191.6875 235.6875 -192.9375 234.1875 C-192.9375 233.5275 -192.9375 232.8675 -192.9375 232.1875 C-193.53304687 231.95417969 -194.12859375 231.72085938 -194.7421875 231.48046875 C-199.78539067 228.51018361 -202.32638772 221.87533393 -204.25 216.5625 C-206.57348998 205.15627647 -205.85382024 194.83668386 -199.27237892 184.87124825 C-196.17266296 180.33127053 -192.66186191 176.48520834 -188.76693726 172.62252808 C-188.06790649 171.91740621 -187.36887573 171.21228434 -186.64866221 170.48579514 C-184.32539335 168.14599647 -181.99166689 165.81693148 -179.65771484 163.48779297 C-177.98113439 161.80386641 -176.30517605 160.11932026 -174.62979126 158.4342041 C-170.09122828 153.8734738 -165.54311784 149.32238164 -160.99251127 144.77367163 C-158.14625929 141.92821086 -155.30287125 139.07990042 -152.46019363 136.23086929 C-151.50257823 135.27115451 -150.54496194 134.31144062 -149.58734477 133.3517276 C-149.11058761 132.87392692 -148.63383046 132.39612624 -148.14262612 131.90384676 C-139.14227054 122.88462342 -130.13199899 113.87535683 -121.11879058 104.86898054 C-112.89097844 96.64674161 -104.67644078 88.41138403 -96.46799032 80.16981982 C-88.02024821 71.68826615 -79.56317984 63.21611325 -71.09620821 54.75375473 C-66.35052878 50.01031242 -61.60884527 45.26303962 -56.87656784 40.50622177 C-52.42416906 36.03149735 -47.95977633 31.56909039 -43.48608017 27.11566162 C-41.85161743 25.48459851 -40.22136002 23.84930804 -38.59578705 22.20938492 C-16.65699591 0.09042886 -16.65699591 0.09042886 0 0 Z " fill="#FDFDFD" transform="translate(211.9375,13.8125)"/>
<path d="M0 0 C4.09693878 2.97959184 4.09693878 2.97959184 5.75 5 C5.75 5.66 5.75 6.32 5.75 7 C6.41 7 7.07 7 7.75 7 C7.75 7.66 7.75 8.32 7.75 9 C8.41 9 9.07 9 9.75 9 C11.375 10.375 11.375 10.375 12.75 12 C12.75 12.66 12.75 13.32 12.75 14 C13.41 14 14.07 14 14.75 14 C14.75 14.66 14.75 15.32 14.75 16 C15.41 16 16.07 16 16.75 16 C18.375 17.375 18.375 17.375 19.75 19 C19.75 19.66 19.75 20.32 19.75 21 C20.41 21 21.07 21 21.75 21 C23.375 22.375 23.375 22.375 24.75 24 C24.75 24.66 24.75 25.32 24.75 26 C25.41 26 26.07 26 26.75 26 C26.75 26.66 26.75 27.32 26.75 28 C27.41 28 28.07 28 28.75 28 C30.375 29.375 30.375 29.375 31.75 31 C31.75 31.66 31.75 32.32 31.75 33 C32.41 33 33.07 33 33.75 33 C33.75 33.66 33.75 34.32 33.75 35 C34.41 35 35.07 35 35.75 35 C37.375 36.375 37.375 36.375 38.75 38 C38.75 38.66 38.75 39.32 38.75 40 C39.41 40 40.07 40 40.75 40 C40.75 40.66 40.75 41.32 40.75 42 C41.41 42 42.07 42 42.75 42 C44.375 43.375 44.375 43.375 45.75 45 C45.75 45.66 45.75 46.32 45.75 47 C46.41 47 47.07 47 47.75 47 C49.375 48.375 49.375 48.375 50.75 50 C50.75 50.66 50.75 51.32 50.75 52 C51.41 52 52.07 52 52.75 52 C52.75 52.66 52.75 53.32 52.75 54 C53.41 54 54.07 54 54.75 54 C56.375 55.375 56.375 55.375 57.75 57 C57.75 57.66 57.75 58.32 57.75 59 C58.41 59 59.07 59 59.75 59 C59.75 59.66 59.75 60.32 59.75 61 C60.41 61 61.07 61 61.75 61 C63.375 62.375 63.375 62.375 64.75 64 C64.75 64.66 64.75 65.32 64.75 66 C65.41 66 66.07 66 66.75 66 C68.375 67.375 68.375 67.375 69.75 69 C69.75 69.66 69.75 70.32 69.75 71 C70.41 71 71.07 71 71.75 71 C71.75 71.66 71.75 72.32 71.75 73 C72.41 73 73.07 73 73.75 73 C75.375 74.375 75.375 74.375 76.75 76 C76.75 76.66 76.75 77.32 76.75 78 C77.41 78 78.07 78 78.75 78 C78.75 78.66 78.75 79.32 78.75 80 C79.41 80 80.07 80 80.75 80 C82.375 81.375 82.375 81.375 83.75 83 C83.75 83.66 83.75 84.32 83.75 85 C84.41 85 85.07 85 85.75 85 C85.75 85.66 85.75 86.32 85.75 87 C86.41 87 87.07 87 87.75 87 C89.375 88.375 89.375 88.375 90.75 90 C90.75 90.66 90.75 91.32 90.75 92 C91.41 92 92.07 92 92.75 92 C94.375 93.375 94.375 93.375 95.75 95 C95.75 95.66 95.75 96.32 95.75 97 C96.41 97 97.07 97 97.75 97 C97.75 97.66 97.75 98.32 97.75 99 C98.41 99 99.07 99 99.75 99 C101.375 100.375 101.375 100.375 102.75 102 C102.75 102.66 102.75 103.32 102.75 104 C103.41 104 104.07 104 104.75 104 C104.75 104.66 104.75 105.32 104.75 106 C105.41 106 106.07 106 106.75 106 C108.375 107.375 108.375 107.375 109.75 109 C109.75 109.66 109.75 110.32 109.75 111 C110.41 111 111.07 111 111.75 111 C113.375 112.375 113.375 112.375 114.75 114 C114.75 114.66 114.75 115.32 114.75 116 C115.41 116 116.07 116 116.75 116 C116.75 116.66 116.75 117.32 116.75 118 C117.41 118 118.07 118 118.75 118 C120.375 119.375 120.375 119.375 121.75 121 C121.75 121.66 121.75 122.32 121.75 123 C122.41 123 123.07 123 123.75 123 C123.75 123.66 123.75 124.32 123.75 125 C124.41 125 125.07 125 125.75 125 C127.375 126.375 127.375 126.375 128.75 128 C128.75 128.66 128.75 129.32 128.75 130 C129.41 130 130.07 130 130.75 130 C130.75 130.66 130.75 131.32 130.75 132 C131.41 132 132.07 132 132.75 132 C134.375 133.375 134.375 133.375 135.75 135 C135.75 135.66 135.75 136.32 135.75 137 C136.41 137 137.07 137 137.75 137 C139.375 138.375 139.375 138.375 140.75 140 C140.75 140.66 140.75 141.32 140.75 142 C141.41 142 142.07 142 142.75 142 C142.75 142.66 142.75 143.32 142.75 144 C143.41 144 144.07 144 144.75 144 C146.375 145.375 146.375 145.375 147.75 147 C147.75 147.66 147.75 148.32 147.75 149 C148.41 149 149.07 149 149.75 149 C149.75 149.66 149.75 150.32 149.75 151 C150.41 151 151.07 151 151.75 151 C153.375 152.375 153.375 152.375 154.75 154 C154.75 154.66 154.75 155.32 154.75 156 C155.41 156 156.07 156 156.75 156 C158.375 157.375 158.375 157.375 159.75 159 C159.75 159.66 159.75 160.32 159.75 161 C160.41 161 161.07 161 161.75 161 C161.75 161.66 161.75 162.32 161.75 163 C162.41 163 163.07 163 163.75 163 C165.375 164.375 165.375 164.375 166.75 166 C166.75 166.66 166.75 167.32 166.75 168 C167.41 168 168.07 168 168.75 168 C168.75 168.66 168.75 169.32 168.75 170 C169.41 170 170.07 170 170.75 170 C178.31774382 177.72024244 182.98282585 186.66470962 183.3125 197.5 C182.9259324 208.07691893 179.29956454 217.75496574 172.22265625 225.71875 C170.75 227 170.75 227 168.75 227 C168.75 227.66 168.75 228.32 168.75 229 C168.09 229 167.43 229 166.75 229 C166.75 229.66 166.75 230.32 166.75 231 C165.375 232.625 165.375 232.625 163.75 234 C163.09 234 162.43 234 161.75 234 C161.75 234.66 161.75 235.32 161.75 236 C161.09 236 160.43 236 159.75 236 C159.75 236.66 159.75 237.32 159.75 238 C158.375 239.625 158.375 239.625 156.75 241 C156.09 241 155.43 241 154.75 241 C154.75 241.66 154.75 242.32 154.75 243 C152.375 245.625 152.375 245.625 149.75 248 C149.09 248 148.43 248 147.75 248 C147.75 248.66 147.75 249.32 147.75 250 C146.375 251.625 146.375 251.625 144.75 253 C144.09 253 143.43 253 142.75 253 C142.75 253.66 142.75 254.32 142.75 255 C142.09 255 141.43 255 140.75 255 C140.75 255.66 140.75 256.32 140.75 257 C139.375 258.625 139.375 258.625 137.75 260 C137.09 260 136.43 260 135.75 260 C135.75 260.66 135.75 261.32 135.75 262 C133.375 264.625 133.375 264.625 130.75 267 C130.09 267 129.43 267 128.75 267 C128.75 267.66 128.75 268.32 128.75 269 C127.375 270.625 127.375 270.625 125.75 272 C125.09 272 124.43 272 123.75 272 C123.75 272.66 123.75 273.32 123.75 274 C123.09 274 122.43 274 121.75 274 C121.75 274.66 121.75 275.32 121.75 276 C120.375 277.625 120.375 277.625 118.75 279 C118.09 279 117.43 279 116.75 279 C116.75 279.66 116.75 280.32 116.75 281 C116.09 281 115.43 281 114.75 281 C114.75 281.66 114.75 282.32 114.75 283 C113.375 284.625 113.375 284.625 111.75 286 C111.09 286 110.43 286 109.75 286 C109.75 286.66 109.75 287.32 109.75 288 C107.375 290.625 107.375 290.625 104.75 293 C104.09 293 103.43 293 102.75 293 C102.75 293.66 102.75 294.32 102.75 295 C101.375 296.625 101.375 296.625 99.75 298 C99.09 298 98.43 298 97.75 298 C97.75 298.66 97.75 299.32 97.75 300 C97.09 300 96.43 300 95.75 300 C95.75 300.66 95.75 301.32 95.75 302 C94.375 303.625 94.375 303.625 92.75 305 C92.09 305 91.43 305 90.75 305 C90.75 305.66 90.75 306.32 90.75 307 C88.375 309.625 88.375 309.625 85.75 312 C85.09 312 84.43 312 83.75 312 C83.75 312.66 83.75 313.32 83.75 314 C82.375 315.625 82.375 315.625 80.75 317 C80.09 317 79.43 317 78.75 317 C78.75 317.66 78.75 318.32 78.75 319 C78.09 319 77.43 319 76.75 319 C76.75 319.66 76.75 320.32 76.75 321 C75.375 322.625 75.375 322.625 73.75 324 C73.09 324 72.43 324 71.75 324 C71.75 324.66 71.75 325.32 71.75 326 C71.09 326 70.43 326 69.75 326 C69.75 326.66 69.75 327.32 69.75 328 C68.375 329.625 68.375 329.625 66.75 331 C66.09 331 65.43 331 64.75 331 C64.75 331.66 64.75 332.32 64.75 333 C62.375 335.625 62.375 335.625 59.75 338 C59.09 338 58.43 338 57.75 338 C57.75 338.66 57.75 339.32 57.75 340 C56.375 341.625 56.375 341.625 54.75 343 C54.09 343 53.43 343 52.75 343 C52.75 343.66 52.75 344.32 52.75 345 C52.09 345 51.43 345 50.75 345 C50.75 345.66 50.75 346.32 50.75 347 C49.375 348.625 49.375 348.625 47.75 350 C47.09 350 46.43 350 45.75 350 C45.75 350.66 45.75 351.32 45.75 352 C43.375 354.625 43.375 354.625 40.75 357 C40.09 357 39.43 357 38.75 357 C38.75 357.66 38.75 358.32 38.75 359 C37.375 360.625 37.375 360.625 35.75 362 C35.09 362 34.43 362 33.75 362 C33.75 362.66 33.75 363.32 33.75 364 C33.09 364 32.43 364 31.75 364 C31.75 364.66 31.75 365.32 31.75 366 C30.375 367.625 30.375 367.625 28.75 369 C28.09 369 27.43 369 26.75 369 C26.75 369.66 26.75 370.32 26.75 371 C26.09 371 25.43 371 24.75 371 C24.75 371.66 24.75 372.32 24.75 373 C23.375 374.625 23.375 374.625 21.75 376 C21.09 376 20.43 376 19.75 376 C19.75 376.66 19.75 377.32 19.75 378 C17.375 380.625 17.375 380.625 14.75 383 C14.09 383 13.43 383 12.75 383 C12.75 383.66 12.75 384.32 12.75 385 C11.375 386.625 11.375 386.625 9.75 388 C9.09 388 8.43 388 7.75 388 C7.75 388.66 7.75 389.32 7.75 390 C7.09 390 6.43 390 5.75 390 C5.75 390.66 5.75 391.32 5.75 392 C-0.9045153 398.33851877 -10.00927793 403.51364621 -19.25 404 C-20.09433594 404.05027344 -20.93867188 404.10054688 -21.80859375 404.15234375 C-32.77294322 404.5325223 -40.94081389 401.25405137 -49.25 394 C-49.745 392.515 -49.745 392.515 -50.25 391 C-50.91 391 -51.57 391 -52.25 391 C-56.22210019 386.21311003 -58.20450748 381.0638566 -59.25 375 C-58.92 374.34 -58.59 373.68 -58.25 373 C-58.91 373 -59.57 373 -60.25 373 C-59.92 372.01 -59.59 371.02 -59.25 370 C-59.745 368.515 -59.745 368.515 -60.25 367 C-60.25 363.90820871 -60.10280633 361.84312679 -59.375 358.9375 C-59.21257812 358.26589844 -59.05015625 357.59429687 -58.8828125 356.90234375 C-58.25 355 -58.25 355 -56.25 352 C-55.95649375 351.2049021 -55.6629875 350.40980419 -55.36058712 349.59061241 C-51.0905602 339.63012887 -39.184174 330.7983158 -31.56030273 323.19677734 C-30.19917154 321.83592878 -28.8382616 320.47485887 -27.47755432 319.11358643 C-23.81101758 315.44676466 -20.14142227 311.78301808 -16.47123981 308.11984587 C-12.62575666 304.28064569 -8.78313564 300.43858293 -4.94020081 296.59683228 C2.32484893 289.33488134 9.59244233 282.07548166 16.86096948 274.81701148 C25.14112113 266.54806617 33.4184081 258.2762558 41.69546425 250.00421214 C58.71047343 232.99963449 75.72904906 215.99863002 92.75 199 C88.94015097 194.44658639 85.00257758 190.11228552 80.78514099 185.93507385 C80.21592849 185.36712363 79.646716 184.7991734 79.06025463 184.21401256 C77.17202031 182.33111141 75.28022341 180.45183216 73.38842773 178.57250977 C72.02597563 177.21525653 70.66376897 175.85775686 69.30178833 174.50003052 C66.37792487 171.58607564 63.45260531 168.67359329 60.52621269 165.76217842 C55.89586073 161.15496754 51.27045613 156.54281143 46.64601135 151.92967224 C33.4985338 138.8155656 20.34690354 125.70564391 7.18481445 112.60620117 C-0.09169495 105.36424227 -7.36281233 98.11691497 -14.62799877 90.86359638 C-19.22024312 86.2794361 -23.8189731 81.70191648 -28.42260563 77.12919438 C-31.28803043 74.27981072 -34.14710171 71.42411771 -37.00442123 68.56660843 C-38.32681874 67.24662621 -39.65178326 65.92920973 -40.97953987 64.6146183 C-42.79746298 62.81396737 -44.60578029 61.0041656 -46.41212463 59.19190979 C-47.19540197 58.42276342 -47.19540197 58.42276342 -47.99450308 57.63807875 C-57.13894812 48.39376211 -60.25 38.83602418 -60.25 26 C-59.35408228 16.36888455 -54.28320188 7.27865032 -46.95703125 1.05078125 C-32.1972156 -9.8646173 -15.6209975 -9.61292154 0 0 Z " fill="#FDFDFD" transform="translate(460.25,21)"/>
<path d="M0 0 C0.65740173 -0.00671722 1.31480347 -0.01343445 1.99212646 -0.02035522 C4.15889093 -0.03930817 6.32534538 -0.04325757 8.4921875 -0.04541016 C10.00146613 -0.05183854 11.51074351 -0.05856693 13.02001953 -0.06558228 C16.18069347 -0.0775472 19.34125815 -0.08126377 22.50195312 -0.08007812 C26.55079513 -0.07987465 30.5989375 -0.10720936 34.64761353 -0.14162254 C37.76346046 -0.16386177 40.87913797 -0.16791664 43.99505615 -0.16685867 C45.48779722 -0.16921788 46.98054273 -0.17805948 48.47320557 -0.19352341 C50.56076129 -0.21313066 52.64679453 -0.2073689 54.734375 -0.1953125 C55.92144043 -0.19816254 57.10850586 -0.20101257 58.33154297 -0.20394897 C62.03344658 0.39905432 63.12529806 1.33309255 65.3671875 4.29052734 C66.43493652 6.40679932 66.43493652 6.40679932 67.24804688 8.72119141 C67.72256287 10.04464569 67.72256287 10.04464569 68.20666504 11.39483643 C68.53807495 12.35557068 68.86948486 13.31630493 69.2109375 14.30615234 C69.57231812 15.32376648 69.93369873 16.34138062 70.30603027 17.38983154 C71.50365453 20.7697637 72.68523245 24.15508722 73.8671875 27.54052734 C74.71106844 29.93026415 75.55614168 32.31958022 76.40234375 34.70849609 C77.94936813 39.07925349 79.49320162 43.45109535 81.03163147 47.82488251 C85.02236522 59.17023015 89.07300983 70.49403109 93.12496948 81.81762695 C94.7918308 86.47771338 96.45564488 91.13888537 98.11949158 95.80004883 C108.75221853 125.58542485 119.4147248 155.36036441 130.13967896 185.1126709 C130.70180887 186.67234748 131.26356468 188.23215895 131.82492065 189.79211426 C132.57995326 191.88969272 133.33657984 193.98668846 134.09375 196.08349609 C134.51221191 197.24389404 134.93067383 198.40429199 135.36181641 199.59985352 C136.28353664 202.21144398 136.28353664 202.21144398 137.3671875 204.29052734 C137.60283417 203.6248172 137.83848083 202.95910706 138.08126831 202.27322388 C148.43392741 173.03006768 158.79414768 143.78989629 169.3046875 114.60302734 C169.66632996 113.5981427 170.02797241 112.59325806 170.40057373 111.55792236 C174.00879968 101.53543987 177.63617106 91.52015381 181.30859375 81.52099609 C181.6031395 80.71712967 181.89768524 79.91326324 182.20115662 79.08503723 C184.24821855 73.52846524 184.24821855 73.52846524 185.3671875 71.29052734 C210.1171875 71.29052734 234.8671875 71.29052734 260.3671875 71.29052734 C248.9592405 102.09198423 248.9592405 102.09198423 243.86395264 115.04077148 C242.1549369 119.3848222 240.45539433 123.73258653 238.75390625 128.07958984 C238.39673523 128.99142029 238.03956421 129.90325073 237.67156982 130.8427124 C233.50505853 141.48290773 229.37202915 152.1360563 225.2421875 162.79052734 C224.85064484 163.80044739 224.45910217 164.81036743 224.05569458 165.85089111 C217.00699291 184.03419647 209.98485766 202.22772907 202.96609497 220.42260742 C194.62818172 242.03641609 186.26205767 263.63916279 177.87988281 285.23583984 C174.6410188 293.581881 171.40828876 301.93029058 168.17640686 310.27903748 C165.0052038 318.4695539 161.82670668 326.65722039 158.64463806 334.84352112 C156.53379231 340.27659959 154.43301289 345.71339004 152.34298706 351.1545105 C151.13547844 354.29367694 149.92052511 357.42992179 148.70355225 360.56542969 C148.15246776 361.99037499 147.60473444 363.41662154 147.06060791 364.84423828 C146.32780887 366.76589511 145.58225579 368.68267427 144.8359375 370.59912109 C144.22395508 372.1893811 144.22395508 372.1893811 143.59960938 373.81176758 C142.3671875 376.29052734 142.3671875 376.29052734 139.3671875 378.29052734 C135.9296875 378.41552734 135.9296875 378.41552734 132.3671875 377.29052734 C129.12832677 371.64500763 126.86449865 365.66230869 124.59375 359.57568359 C124.05994972 358.16187157 124.05994972 358.16187157 123.5153656 356.71949768 C122.74343691 354.67419713 121.97333409 352.62820673 121.2048645 350.581604 C119.09289015 344.95877856 116.96575872 339.3416874 114.83984375 333.72412109 C114.39388351 332.54487061 113.94792328 331.36562012 113.4884491 330.15063477 C108.52862013 317.04918722 103.48260757 303.98129207 98.4296875 290.91552734 C97.49898179 288.5078286 96.56831786 286.1001137 95.63769531 283.69238281 C94.24481507 280.08874921 92.85191044 276.48512511 91.45877075 272.8815918 C86.70605978 260.58572813 81.97224215 248.28262121 77.2421875 235.97802734 C76.83299072 234.91357391 76.42379395 233.84912048 76.00219727 232.75241089 C74.35516356 228.46782624 72.70815473 224.18323204 71.06130981 219.89857483 C68.18016521 212.40323381 65.29581415 204.90913178 62.41015625 197.41552734 C53.90435353 175.32391378 45.42607515 153.22220246 36.9921875 131.10302734 C30.16614092 113.20085652 23.30458045 95.31281282 16.40161133 77.44015503 C15.00848305 73.83272381 13.61644317 70.22487419 12.22460938 66.61694336 C8.42589262 56.77347637 4.62344165 46.93169951 0.7796936 37.10571289 C-0.65694061 33.43136462 -2.08779667 29.75478163 -3.5178833 26.07788086 C-4.16967557 24.40722864 -4.82450619 22.73775812 -5.48260498 21.06958008 C-6.37086678 18.81793566 -7.24904077 16.56260519 -8.125 14.30615234 C-8.38317505 13.66007019 -8.6413501 13.01398804 -8.90734863 12.34832764 C-10.24504991 8.86878288 -10.91645646 6.02119654 -10.6328125 2.29052734 C-7.07294692 0.08596245 -4.14073933 0.02659274 0 0 Z " fill="#FBFBFB" transform="translate(1241.6328125,21.70947265625)"/>
<path d="M0 0 C24.42 0 48.84 0 74 0 C74 102.96 74 205.92 74 312 C86.87 312 99.74 312 113 312 C117 315 117 315 117.50793457 317.6184082 C117.51111694 318.66859131 117.51429932 319.71877441 117.51757812 320.80078125 C117.53018677 321.9921167 117.54279541 323.18345215 117.55578613 324.41088867 C117.54768921 325.69842041 117.53959229 326.98595215 117.53125 328.3125 C117.53394474 329.64624311 117.53782701 330.97998431 117.54284668 332.3137207 C117.54874279 335.10810055 117.54017625 337.90196873 117.52148438 340.69628906 C117.49869344 344.27792586 117.5118161 347.85836385 117.53577423 351.43995667 C117.55022996 354.19381745 117.54562756 356.94739408 117.53526306 359.70126343 C117.53129771 361.66388731 117.54344396 363.62652225 117.55578613 365.58911133 C117.53687317 367.3761145 117.53687317 367.3761145 117.51757812 369.19921875 C117.51439575 370.24940186 117.51121338 371.29958496 117.50793457 372.3815918 C117 375 117 375 115.35966492 376.63942051 C112.31543462 378.39471944 110.24568947 378.38006457 106.73742676 378.38768005 C104.80680138 378.402537 104.80680138 378.402537 102.83717346 378.41769409 C101.4129324 378.41345608 99.98869225 378.40889822 98.56445312 378.40405273 C97.06297802 378.40975559 95.56150725 378.41671953 94.06004333 378.42485046 C89.98363292 378.44280519 85.90743747 378.44160934 81.83099937 378.43590808 C78.42874552 378.43281996 75.02653318 378.43890438 71.62428522 378.44494683 C63.59926055 378.45899766 55.57434233 378.45742577 47.54931641 378.44604492 C39.2672076 378.43455913 30.98542243 378.44864572 22.70335627 378.4754414 C15.59411921 378.49758225 8.48498387 378.50423955 1.37571478 378.49836498 C-2.87105719 378.49499079 -7.11762161 378.49744112 -11.36436462 378.51461601 C-15.35685027 378.53005782 -19.34885547 378.52616084 -23.34132195 378.50731087 C-24.80707137 378.50361745 -26.27285618 378.5067554 -27.73857307 378.51719666 C-29.73815478 378.5303543 -31.73786012 378.5164834 -33.73742676 378.50120544 C-34.85681892 378.50099616 -35.97621109 378.50078688 -37.12952423 378.50057125 C-40.66184565 377.88458328 -41.84149767 376.81267556 -44 374 C-44.50793457 371.29930115 -44.50793457 371.29930115 -44.51757812 368.17749023 C-44.53018677 367.00625107 -44.54279541 365.8350119 -44.55578613 364.62828064 C-44.54768921 363.36778397 -44.53959229 362.10728729 -44.53125 360.80859375 C-44.5350769 359.51180191 -44.53890381 358.21501007 -44.54284668 356.87892151 C-44.54873621 354.1375925 -44.54019615 351.39678576 -44.52148438 348.65551758 C-44.49867116 345.14228321 -44.51183421 341.63026954 -44.53577423 338.11707973 C-44.55370242 334.76415309 -44.54115208 331.41155508 -44.53125 328.05859375 C-44.53934692 326.79607285 -44.54744385 325.53355194 -44.55578613 324.23277283 C-44.54317749 323.06468582 -44.53056885 321.89659882 -44.51757812 320.69311523 C-44.51439575 319.66371323 -44.51121338 318.63431122 -44.50793457 317.57371521 C-44 315 -44 315 -40 312 C-26.8 312 -13.6 312 0 312 C0 209.04 0 106.08 0 0 Z " fill="#FCFCFC" transform="translate(1108,22)"/>
<path d="M0 0 C24.42 0 48.84 0 74 0 C74.04406776 30.14133221 74.08100497 60.28264665 74.10213066 90.42400207 C74.10463216 93.98017787 74.10722079 97.5363536 74.10986328 101.0925293 C74.1103879 101.80051807 74.11091252 102.50850684 74.11145304 103.23794981 C74.12016237 114.71078493 74.13593524 126.18360006 74.15430559 137.65642331 C74.17298997 149.42325567 74.18411362 161.19007755 74.18817699 172.95692414 C74.19079007 179.56842809 74.19695468 186.17988667 74.21146011 192.79137611 C74.22499098 199.00877934 74.22923178 205.2261183 74.22621536 211.44353485 C74.22676755 213.73049709 74.23077164 216.01746139 74.23841095 218.30441093 C74.24830184 221.416954 74.24599035 224.52925166 74.24050903 227.64179993 C74.24633472 228.55521615 74.2521604 229.46863237 74.25816262 230.40972787 C74.25418052 231.24126577 74.25019842 232.07280367 74.24609566 232.92953968 C74.24723482 234.00775556 74.24723482 234.00775556 74.24839699 235.10775357 C74 237 74 237 72 240 C68.7052213 241.09825957 66.22619797 241.14693101 62.75610352 241.17700195 C60.82378624 241.19625481 60.82378624 241.19625481 58.85243225 241.21589661 C57.44459416 241.2240627 56.03675172 241.23150668 54.62890625 241.23828125 C53.56484715 241.24439454 53.56484715 241.24439454 52.47929192 241.25063133 C48.72700163 241.27146815 44.97474769 241.28578203 41.22241211 241.29516602 C37.34732726 241.30624582 33.47281422 241.34066968 29.59793186 241.38033772 C26.61678496 241.40647266 23.63577525 241.41485484 20.65452385 241.41844749 C19.22596294 241.42331899 17.79740838 241.43494915 16.36895943 241.45348549 C14.37054381 241.47781313 12.37184958 241.47449841 10.37329102 241.4699707 C9.23650406 241.47583694 8.0997171 241.48170319 6.92848206 241.48774719 C3.14532938 240.85765213 2.24322891 240.11146021 0 237 C-0.59347666 233.84355249 -0.5220108 230.72494837 -0.48101807 227.52154541 C-0.48443577 226.5503258 -0.48785347 225.57910619 -0.49137473 224.57845569 C-0.49797737 221.31535243 -0.47593763 218.05306687 -0.45410156 214.79003906 C-0.4529736 212.45450358 -0.45360593 210.11896667 -0.45587158 207.78343201 C-0.45702166 201.43457416 -0.4334645 195.08601713 -0.40557575 188.73722935 C-0.38313932 182.77708616 -0.37908535 176.81695485 -0.37496826 170.85677513 C-0.36621361 159.05143255 -0.33959348 147.24620052 -0.30175781 135.44091797 C-0.26504209 123.97315016 -0.2367282 112.50541238 -0.21972656 101.03759766 C-0.21867567 100.3307306 -0.21762477 99.62386354 -0.21654204 98.89557627 C-0.21132189 95.34943411 -0.20626706 91.80329173 -0.20129442 88.25714922 C-0.15982709 58.83801625 -0.08608642 29.4190413 0 0 Z " fill="#FBFBFB" transform="translate(2283,159)"/>
<path d="M0 0 C1.96223511 -0.01902626 1.96223511 -0.01902626 3.96411133 -0.03843689 C5.38883624 -0.03638553 6.81356008 -0.03339758 8.23828125 -0.02954102 C9.70272056 -0.0341031 11.16715774 -0.03940876 12.6315918 -0.04542542 C15.69816801 -0.05435357 18.76448375 -0.05193651 21.83105469 -0.04199219 C25.75887852 -0.03049542 29.68580428 -0.0507251 33.61351013 -0.07990932 C36.63673603 -0.09826279 39.65974629 -0.09798079 42.68301392 -0.0922718 C44.13108583 -0.09211852 45.57917229 -0.09816878 47.02719116 -0.11056328 C49.05193142 -0.12545441 51.07681954 -0.11217593 53.1015625 -0.09765625 C54.25309814 -0.09749008 55.40463379 -0.09732391 56.59106445 -0.09715271 C60.38440803 0.54522107 61.29649731 1.28947295 63.55078125 4.40405273 C64.1423414 7.49769532 64.07287464 10.55141613 64.03179932 13.69268799 C64.03521702 14.64348984 64.03863472 15.59429168 64.04215598 16.57390571 C64.04875782 19.76791783 64.02672031 22.96109427 64.00488281 26.1550293 C64.00375484 28.44130432 64.00438722 30.7275808 64.00665283 33.01385498 C64.00780284 39.22842228 63.98424681 45.44268221 63.956357 51.65717793 C63.93139127 58.14877588 63.92900516 64.64038049 63.92425537 71.13201904 C63.9132262 82.03037002 63.8882231 92.92860721 63.85253906 103.8269043 C63.81582269 115.05215896 63.78750912 126.27738295 63.77050781 137.50268555 C63.76893147 138.54058367 63.76893147 138.54058367 63.76732329 139.59944943 C63.76210313 143.07067123 63.7570483 146.54189324 63.75207567 150.01311541 C63.71060911 178.81018299 63.63686887 207.60708071 63.55078125 236.40405273 C39.13078125 236.40405273 14.71078125 236.40405273 -10.44921875 236.40405273 C-10.53735501 206.77230193 -10.61122907 177.14062714 -10.65348007 147.50877975 C-10.65848306 144.01268887 -10.66366033 140.51659827 -10.66894531 137.02050781 C-10.66999455 136.3244815 -10.6710438 135.62845519 -10.67212483 134.91133717 C-10.68954333 123.63246527 -10.72108891 112.35367468 -10.75782993 101.07485106 C-10.7951993 89.50690025 -10.81714656 77.93900674 -10.82557273 66.37099677 C-10.83079884 59.87121428 -10.84312727 53.3716164 -10.87213898 46.87189293 C-10.8992019 40.75949692 -10.9076822 34.64736233 -10.90164948 28.53491211 C-10.9027538 26.28664036 -10.9107616 24.03836025 -10.92604065 21.79014015 C-10.94582553 18.72990021 -10.94119983 15.67065846 -10.93023682 12.61039734 C-10.94188818 11.71254491 -10.95353955 10.81469248 -10.96554399 9.8896324 C-10.9073295 3.91333188 -10.9073295 3.91333188 -8.60413742 1.3528862 C-5.64597695 0.05037688 -3.23145792 0.01516194 0 0 Z " fill="#FBFBFB" transform="translate(1760.44921875,21.595947265625)"/>
<path d="M0 0 C1.96223511 -0.01902626 1.96223511 -0.01902626 3.96411133 -0.03843689 C5.38883624 -0.03638553 6.81356008 -0.03339758 8.23828125 -0.02954102 C9.70272056 -0.0341031 11.16715774 -0.03940876 12.6315918 -0.04542542 C15.69816801 -0.05435357 18.76448375 -0.05193651 21.83105469 -0.04199219 C25.75887852 -0.03049542 29.68580428 -0.0507251 33.61351013 -0.07990932 C36.63673603 -0.09826279 39.65974629 -0.09798079 42.68301392 -0.0922718 C44.13108583 -0.09211852 45.57917229 -0.09816878 47.02719116 -0.11056328 C49.05193142 -0.12545441 51.07681954 -0.11217593 53.1015625 -0.09765625 C54.25309814 -0.09749008 55.40463379 -0.09732391 56.59106445 -0.09715271 C60.38440803 0.54522107 61.29649731 1.28947295 63.55078125 4.40405273 C64.1423414 7.49769532 64.07287464 10.55141613 64.03179932 13.69268799 C64.03521702 14.64348984 64.03863472 15.59429168 64.04215598 16.57390571 C64.04875782 19.76791783 64.02672031 22.96109427 64.00488281 26.1550293 C64.00375484 28.44130432 64.00438722 30.7275808 64.00665283 33.01385498 C64.00780284 39.22842228 63.98424681 45.44268221 63.956357 51.65717793 C63.93139127 58.14877588 63.92900516 64.64038049 63.92425537 71.13201904 C63.9132262 82.03037002 63.8882231 92.92860721 63.85253906 103.8269043 C63.81582269 115.05215896 63.78750912 126.27738295 63.77050781 137.50268555 C63.76893147 138.54058367 63.76893147 138.54058367 63.76732329 139.59944943 C63.76210313 143.07067123 63.7570483 146.54189324 63.75207567 150.01311541 C63.71060911 178.81018299 63.63686887 207.60708071 63.55078125 236.40405273 C39.13078125 236.40405273 14.71078125 236.40405273 -10.44921875 236.40405273 C-10.53735501 206.77230193 -10.61122907 177.14062714 -10.65348007 147.50877975 C-10.65848306 144.01268887 -10.66366033 140.51659827 -10.66894531 137.02050781 C-10.66999455 136.3244815 -10.6710438 135.62845519 -10.67212483 134.91133717 C-10.68954333 123.63246527 -10.72108891 112.35367468 -10.75782993 101.07485106 C-10.7951993 89.50690025 -10.81714656 77.93900674 -10.82557273 66.37099677 C-10.83079884 59.87121428 -10.84312727 53.3716164 -10.87213898 46.87189293 C-10.8992019 40.75949692 -10.9076822 34.64736233 -10.90164948 28.53491211 C-10.9027538 26.28664036 -10.9107616 24.03836025 -10.92604065 21.79014015 C-10.94582553 18.72990021 -10.94119983 15.67065846 -10.93023682 12.61039734 C-10.94188818 11.71254491 -10.95353955 10.81469248 -10.96554399 9.8896324 C-10.9073295 3.91333188 -10.9073295 3.91333188 -8.60413742 1.3528862 C-5.64597695 0.05037688 -3.23145792 0.01516194 0 0 Z " fill="#FBFBFB" transform="translate(855.44921875,21.595947265625)"/>
<path d="M0 0 C0.89897696 -0.00382555 1.79795391 -0.00765109 2.72417259 -0.01159257 C5.74276924 -0.02192859 8.76117588 -0.01792928 11.77978516 -0.01396179 C13.94134701 -0.01830789 16.10290732 -0.02349069 18.26446533 -0.02944946 C24.14036002 -0.04286063 30.01619046 -0.04341585 35.89209747 -0.04088616 C40.79299375 -0.03981804 45.69387695 -0.04469566 50.59477043 -0.04949158 C62.15319671 -0.06059377 73.7115905 -0.06101995 85.27001953 -0.05497742 C97.20566767 -0.04893379 109.14119805 -0.06125694 121.0768261 -0.08254749 C131.31553336 -0.1001415 141.55420305 -0.10616839 151.79292488 -0.10290974 C157.91201096 -0.10109348 164.03101301 -0.10376738 170.15008545 -0.11762428 C175.90221031 -0.13016249 181.65415099 -0.12829658 187.40627289 -0.11521339 C189.52027192 -0.11283943 191.63428376 -0.11561145 193.74826813 -0.12383652 C196.62829348 -0.13423627 199.50769302 -0.12625797 202.38769531 -0.11352539 C203.22932409 -0.12089968 204.07095287 -0.12827396 204.93808556 -0.13587171 C208.27842838 -0.10468366 210.74260173 0.01708211 213.71248627 1.62043476 C215.89662557 4.03885876 215.70166359 5.83995508 215.71142578 9.06147766 C215.72403442 10.25281311 215.73664307 11.44414856 215.74963379 12.67158508 C215.74153687 13.95911682 215.73343994 15.24664856 215.72509766 16.57319641 C215.7277924 17.90693952 215.73167467 19.24068072 215.73669434 20.57441711 C215.74259044 23.36879696 215.7340239 26.16266514 215.71533203 28.95698547 C215.69254109 32.53862227 215.70566376 36.11906026 215.72962189 39.70065308 C215.74407761 42.45451386 215.73947521 45.20809049 215.72911072 47.96195984 C215.72514536 49.92458372 215.73729162 51.88721866 215.74963379 53.84980774 C215.73072083 55.63681091 215.73072083 55.63681091 215.71142578 57.45991516 C215.70824341 58.51009827 215.70506104 59.56028137 215.70178223 60.64228821 C215.19384766 63.26069641 215.19384766 63.26069641 213.71527958 64.90095806 C210.02276611 66.89222823 206.43462056 66.6705749 202.34300232 66.63491821 C201.43923625 66.63889262 200.53547017 66.64286703 199.60431725 66.64696187 C196.56946722 66.65660281 193.53508125 66.64475583 190.50024414 66.63301086 C188.3272077 66.63543821 186.15417237 66.63915698 183.98114014 66.64407349 C178.07427973 66.65349327 172.16758469 66.64404813 166.26073718 66.63074136 C160.08683411 66.61944246 153.91293937 66.62353312 147.73902893 66.62548828 C137.37115774 66.62637168 127.00335188 66.6152806 116.63549805 66.59687805 C104.63735359 66.57570416 92.6393388 66.57220146 80.6411795 66.57844001 C69.11242304 66.58412826 57.58370039 66.57849472 46.05494881 66.56726646 C41.14231811 66.56261391 36.22970804 66.56174946 31.31707573 66.56385231 C25.53624916 66.5657315 19.75552044 66.55765976 13.97471619 66.54179192 C11.84901395 66.53753788 9.7233018 66.53670599 7.59759712 66.53948212 C4.70419267 66.54268844 1.81108344 66.53366135 -1.08229065 66.52139282 C-2.3549395 66.52706181 -2.3549395 66.52706181 -3.65329844 66.53284532 C-7.55486373 66.50342129 -9.48500039 66.47479771 -12.80615234 64.26069641 C-13.16691589 61.66642761 -13.16691589 61.66642761 -13.14672852 58.34223938 C-13.14650192 57.10110382 -13.14627533 55.85996826 -13.14604187 54.58122253 C-13.13072082 53.22177269 -13.11507282 51.8623265 -13.09912109 50.50288391 C-13.09352662 49.11569171 -13.08925582 47.72849358 -13.08625793 46.34129333 C-13.07479731 42.6882036 -13.0453202 39.03547107 -13.012146 35.38252258 C-12.98147101 31.6557651 -12.96775814 27.92894997 -12.95263672 24.20210266 C-12.92045121 16.88813764 -12.86924073 9.57446705 -12.80615234 2.26069641 C-8.86191018 -0.41585928 -4.57336412 -0.02053664 0 0 Z " fill="#FDFDFD" transform="translate(2218.80615234375,21.739303588867188)"/>
<path d="M0 0 C27.08528222 -0.04666154 54.17055845 -0.08196011 81.25587273 -0.10362434 C93.83123999 -0.1139495 106.40658233 -0.12803344 118.98193359 -0.15087891 C129.93894534 -0.17077492 140.89593903 -0.18370741 151.85296834 -0.18817699 C157.65793092 -0.19079081 163.46284186 -0.19696 169.26778793 -0.21146011 C174.72597276 -0.22498424 180.18408441 -0.22923317 185.64228439 -0.22621536 C187.65069475 -0.22676785 189.65910743 -0.23077595 191.66750336 -0.23841095 C194.39942918 -0.2482914 197.13107494 -0.24599432 199.86300659 -0.24050903 C200.66649815 -0.24633472 201.46998972 -0.2521604 202.29782951 -0.25816262 C207.77175758 -0.22824242 207.77175758 -0.22824242 210 2 C210.24050903 4.78408813 210.24050903 4.78408813 210.22705078 8.37744141 C210.22734283 9.03122269 210.22763489 9.68500397 210.22793579 10.3585968 C210.22654065 12.52305296 210.2109712 14.68716636 210.1953125 16.8515625 C210.19158302 18.35085868 210.18873574 19.8501573 210.18673706 21.34945679 C210.17909548 25.29836743 210.1594426 29.24713129 210.1373291 33.19598389 C210.1168819 37.22438572 210.10773776 41.25281124 210.09765625 45.28125 C210.07619711 53.18756741 210.04205495 61.09376545 210 69 C206.18371625 71.51560717 202.28007793 71.28226211 197.87719727 71.26069641 C196.63898775 71.26643473 196.63898775 71.26643473 195.37576389 71.27228898 C192.6059135 71.28261925 189.83627038 71.2786268 187.06640625 71.2746582 C185.08218188 71.27900462 183.0979592 71.28418753 181.11373901 71.29014587 C175.72129843 71.30355358 170.32892785 71.30411265 164.93647385 71.30158257 C160.43820027 71.30051423 155.93994095 71.30539265 151.44167042 71.310188 C140.83252208 71.32128896 130.22340915 71.32171704 119.61425781 71.31567383 C108.66017389 71.30963023 97.70621829 71.32195353 86.75215626 71.3432439 C77.35420568 71.36083988 67.95629603 71.36686449 58.55832958 71.36360615 C52.94226277 71.36179021 47.32628753 71.36446057 41.7102356 71.37832069 C36.43087204 71.39086212 31.15170913 71.38898995 25.87234879 71.37590981 C23.93250588 71.37353655 21.99264902 71.37630537 20.05282211 71.38453293 C17.40924699 71.39493875 14.76635284 71.38694971 12.12280273 71.3742218 C10.96541517 71.38528323 10.96541517 71.38528323 9.78464603 71.39656812 C6.73281704 71.36555445 4.32037578 71.1436889 1.52070618 69.88803387 C-0.73453699 67.08803506 -0.48044904 64.98073322 -0.45410156 61.41723633 C-0.45468567 60.75355545 -0.45526978 60.08987457 -0.45587158 59.40608215 C-0.45308663 57.21419819 -0.42197875 55.02367734 -0.390625 52.83203125 C-0.38316399 51.31174971 -0.37747039 49.79145854 -0.37347412 48.27116394 C-0.35820654 44.27110204 -0.31891582 40.27162176 -0.2746582 36.27178955 C-0.23372927 32.18973662 -0.21546824 28.10758963 -0.1953125 24.02539062 C-0.15242197 16.01666027 -0.08415786 8.0084025 0 0 Z " fill="#FDFDFD" transform="translate(1750,329)"/>
<path d="M0 0 C27.08528222 -0.04666154 54.17055845 -0.08196011 81.25587273 -0.10362434 C93.83123999 -0.1139495 106.40658233 -0.12803344 118.98193359 -0.15087891 C129.93894534 -0.17077492 140.89593903 -0.18370741 151.85296834 -0.18817699 C157.65793092 -0.19079081 163.46284186 -0.19696 169.26778793 -0.21146011 C174.72597276 -0.22498424 180.18408441 -0.22923317 185.64228439 -0.22621536 C187.65069475 -0.22676785 189.65910743 -0.23077595 191.66750336 -0.23841095 C194.39942918 -0.2482914 197.13107494 -0.24599432 199.86300659 -0.24050903 C200.66649815 -0.24633472 201.46998972 -0.2521604 202.29782951 -0.25816262 C207.77175758 -0.22824242 207.77175758 -0.22824242 210 2 C210.24050903 4.78408813 210.24050903 4.78408813 210.22705078 8.37744141 C210.22734283 9.03122269 210.22763489 9.68500397 210.22793579 10.3585968 C210.22654065 12.52305296 210.2109712 14.68716636 210.1953125 16.8515625 C210.19158302 18.35085868 210.18873574 19.8501573 210.18673706 21.34945679 C210.17909548 25.29836743 210.1594426 29.24713129 210.1373291 33.19598389 C210.1168819 37.22438572 210.10773776 41.25281124 210.09765625 45.28125 C210.07619711 53.18756741 210.04205495 61.09376545 210 69 C206.18371625 71.51560717 202.28007793 71.28226211 197.87719727 71.26069641 C196.63898775 71.26643473 196.63898775 71.26643473 195.37576389 71.27228898 C192.6059135 71.28261925 189.83627038 71.2786268 187.06640625 71.2746582 C185.08218188 71.27900462 183.0979592 71.28418753 181.11373901 71.29014587 C175.72129843 71.30355358 170.32892785 71.30411265 164.93647385 71.30158257 C160.43820027 71.30051423 155.93994095 71.30539265 151.44167042 71.310188 C140.83252208 71.32128896 130.22340915 71.32171704 119.61425781 71.31567383 C108.66017389 71.30963023 97.70621829 71.32195353 86.75215626 71.3432439 C77.35420568 71.36083988 67.95629603 71.36686449 58.55832958 71.36360615 C52.94226277 71.36179021 47.32628753 71.36446057 41.7102356 71.37832069 C36.43087204 71.39086212 31.15170913 71.38898995 25.87234879 71.37590981 C23.93250588 71.37353655 21.99264902 71.37630537 20.05282211 71.38453293 C17.40924699 71.39493875 14.76635284 71.38694971 12.12280273 71.3742218 C10.96541517 71.38528323 10.96541517 71.38528323 9.78464603 71.39656812 C6.73281704 71.36555445 4.32037578 71.1436889 1.52070618 69.88803387 C-0.73453699 67.08803506 -0.48044904 64.98073322 -0.45410156 61.41723633 C-0.45468567 60.75355545 -0.45526978 60.08987457 -0.45587158 59.40608215 C-0.45308663 57.21419819 -0.42197875 55.02367734 -0.390625 52.83203125 C-0.38316399 51.31174971 -0.37747039 49.79145854 -0.37347412 48.27116394 C-0.35820654 44.27110204 -0.31891582 40.27162176 -0.2746582 36.27178955 C-0.23372927 32.18973662 -0.21546824 28.10758963 -0.1953125 24.02539062 C-0.15242197 16.01666027 -0.08415786 8.0084025 0 0 Z " fill="#FDFDFD" transform="translate(845,329)"/>
<path d="" fill="#C0C0C0" transform="translate(0,0)"/>
<path d="" fill="#C0C0C0" transform="translate(0,0)"/>
<path d="" fill="#C0C0C0" transform="translate(0,0)"/>
<path d="" fill="#C0C0C0" transform="translate(0,0)"/>
<path d="" fill="#C0C0C0" transform="translate(0,0)"/>
</svg>
